<svg version="1.1" id="Layer_1" xmlns="http://www.w3.org/2000/svg" xmlns:xlink="http://www.w3.org/1999/xlink" x="0px" y="0px"
	 width="100%" viewBox="341 356 1467 1467" enable-background="new 0 0 2200 2200" xml:space="preserve">
<path fill="#57D5C3" opacity="1.000000" stroke="none" 
	d="
M1037.975952,398.272583 
	C1045.240112,398.045715 1052.503052,397.756073 1059.768799,397.603699 
	C1081.924316,397.139038 1104.081055,396.727264 1127.413574,397.092651 
	C1129.033447,402.841522 1129.707642,407.784546 1129.881104,412.745056 
	C1130.694946,436.011475 1131.244507,459.287567 1132.149658,482.550049 
	C1132.598022,494.068787 1136.719849,497.856415 1148.316895,498.065674 
	C1155.635986,498.197723 1163.010376,498.518402 1170.268066,497.812012 
	C1176.439209,497.211426 1182.478882,495.262085 1188.576782,493.909515 
	C1186.514160,510.055542 1184.451660,526.201538 1182.287842,543.141235 
	C1025.850952,524.507568 884.378601,560.332886 759.370300,655.549500 
	C672.901550,721.411316 611.111816,806.206665 573.826355,908.323608 
	C531.957825,1022.992310 527.617798,1139.552856 560.891479,1256.920776 
	C594.183472,1374.353394 660.019836,1470.582031 755.989502,1547.415161 
	C726.849609,1584.716919 698.033447,1621.604370 668.643677,1659.225952 
	C586.172180,1594.279907 521.576721,1516.111450 474.345459,1423.666138 
	C427.123047,1331.238281 401.868439,1232.942993 397.444427,1128.690552 
	C394.461731,1128.327271 391.936981,1127.772583 389.408264,1127.753662 
	C376.745026,1127.659424 364.080139,1127.782227 351.417023,1127.681152 
	C338.733429,1127.579956 334.457458,1123.428467 334.292297,1111.078491 
	C334.171967,1102.082153 334.104065,1093.078735 334.319214,1084.085815 
	C334.564575,1073.829834 338.784424,1069.441650 348.962921,1069.213013 
	C361.287567,1068.936157 373.622955,1069.164673 385.953217,1069.093872 
	C389.537994,1069.073364 393.121185,1068.776855 397.327087,1068.577271 
	C398.111969,1060.337402 398.871124,1052.792358 399.544159,1045.239746 
	C415.400085,867.307373 487.681213,716.161743 615.604370,591.717346 
	C657.352112,551.104919 703.997192,516.776001 755.878540,488.792236 
	C759.261536,501.393738 761.700745,513.443726 763.938049,525.531006 
	C766.479248,539.260315 768.598145,553.071655 771.349060,566.757202 
	C773.937927,579.636963 778.088379,582.392883 790.786438,580.401550 
	C799.653198,579.011047 808.506409,577.489319 817.306458,575.730530 
	C826.991272,573.794922 830.627441,568.534485 829.347229,558.505493 
	C828.674255,553.234009 827.580261,548.016052 826.668396,542.775269 
	C821.767578,514.611938 816.864319,486.448914 811.961914,458.285797 
	C817.812561,455.996826 823.621033,453.592194 829.521301,451.439514 
	C851.639771,443.369537 873.788391,435.381927 896.827271,428.121979 
	C899.872559,448.401459 902.137146,467.910095 904.124634,487.446930 
	C905.952637,505.416260 910.856140,509.563904 928.576416,507.490845 
	C928.907166,507.452148 929.235168,507.388641 929.566223,507.353149 
	C946.444641,505.542389 963.326294,503.761871 980.200928,501.916351 
	C997.406921,500.034515 1014.623413,498.231354 1031.801758,496.120453 
	C1043.011353,494.742981 1046.023438,491.129028 1046.011108,479.729584 
	C1046.006348,475.414978 1045.563354,471.089081 1045.121460,466.788727 
	C1042.774292,443.946472 1040.364258,421.110626 1037.975952,398.272583 
z"/>
<path fill="#4CCFBD" opacity="1.000000" stroke="none" 
	d="
M1416.076416,602.055542 
	C1436.726807,569.028076 1457.010498,536.626221 1477.807007,503.405121 
	C1555.067749,551.970276 1620.111084,612.195557 1673.338867,685.082092 
	C1744.510376,782.539185 1788.008545,891.224365 1803.917114,1010.838196 
	C1814.496460,1090.382812 1811.358276,1169.407715 1794.379028,1249.275391 
	C1747.832886,1239.402710 1702.382080,1229.762451 1655.710571,1219.863281 
	C1679.130859,1103.708984 1669.021851,991.221069 1623.077515,882.644287 
	C1577.065186,773.906616 1503.251221,688.336243 1403.637817,624.409912 
	C1405.874390,615.918518 1411.930298,609.903442 1416.076416,602.055542 
z"/>
<path fill="#4CCFBD" opacity="1.000000" stroke="none" 
	d="
M1045.521484,1767.234863 
	C1048.476929,1732.884033 1051.348267,1699.453735 1054.268555,1665.451904 
	C1247.233154,1676.680542 1407.349121,1610.515381 1536.357910,1465.790527 
	C1572.164062,1495.346436 1607.768799,1525.661743 1644.737305,1556.475708 
	C1578.899414,1634.457397 1500.844116,1695.328125 1409.556030,1739.104614 
	C1293.711182,1794.657349 1171.635010,1816.559082 1042.098877,1806.281128 
	C1043.257690,1793.048340 1044.347534,1780.601807 1045.521484,1767.234863 
z"/>
<path fill="#3FCAB9" opacity="1.000000" stroke="none" 
	d="
M1604.694214,1404.560791 
	C1624.196411,1372.224731 1639.933594,1338.858521 1653.464233,1302.889893 
	C1687.538574,1314.599609 1720.669434,1327.087646 1753.744507,1339.116455 
	C1752.172363,1364.955444 1690.313721,1482.522217 1664.026001,1509.731567 
	C1635.394409,1488.920288 1606.657593,1468.032349 1577.495850,1446.835571 
	C1586.729858,1432.485352 1595.516479,1418.830322 1604.694214,1404.560791 
z"/>
<path fill="#7EE9D8" opacity="1.000000" stroke="none" 
	d="
M1037.893799,397.404175 
	C1040.364258,421.110626 1042.774292,443.946472 1045.121460,466.788727 
	C1045.563354,471.089081 1046.006348,475.414978 1046.011108,479.729584 
	C1046.023438,491.129028 1043.011353,494.742981 1031.801758,496.120453 
	C1014.623413,498.231354 997.406921,500.034515 980.200928,501.916351 
	C963.326294,503.761871 946.444641,505.542389 929.566223,507.353149 
	C929.235168,507.388641 928.907166,507.452148 928.576416,507.490845 
	C910.856140,509.563904 905.952637,505.416260 904.124634,487.446930 
	C902.137146,467.910095 899.872559,448.401459 897.587402,427.967834 
	C896.622620,417.448151 895.811279,407.840118 894.969116,398.234741 
	C894.707214,395.248657 894.141724,392.273163 894.097107,389.287109 
	C893.976562,381.222198 897.355286,376.763519 905.375244,375.408173 
	C913.247009,374.077820 921.234985,373.404022 929.186279,372.580536 
	C958.678955,369.525879 988.172668,366.479645 1017.676147,363.532318 
	C1030.305542,362.270721 1034.644409,365.998627 1035.898926,378.647705 
	C1036.490723,384.614960 1037.171387,390.573364 1037.893799,397.404175 
z"/>
<path fill="#7EE9D8" opacity="1.000000" stroke="none" 
	d="
M811.741211,457.507385 
	C816.864319,486.448914 821.767578,514.611938 826.668396,542.775269 
	C827.580261,548.016052 828.674255,553.234009 829.347229,558.505493 
	C830.627441,568.534485 826.991272,573.794922 817.306458,575.730530 
	C808.506409,577.489319 799.653198,579.011047 790.786438,580.401550 
	C778.088379,582.392883 773.937927,579.636963 771.349060,566.757202 
	C768.598145,553.071655 766.479248,539.260315 763.938049,525.531006 
	C761.700745,513.443726 759.261536,501.393738 756.580078,488.648560 
	C754.594910,476.187927 753.159058,464.370270 751.230591,452.633545 
	C748.973389,438.896362 751.939392,434.345062 765.443604,432.038605 
	C774.268555,430.531311 783.060608,428.784576 791.925720,427.571838 
	C801.702942,426.234344 806.106323,429.519867 808.150635,439.145172 
	C809.390259,444.981720 810.404785,450.866058 811.741211,457.507385 
z"/>
<path fill="#2FBEAF" opacity="1.000000" stroke="none" 
	d="
M1188.946045,493.268188 
	C1182.478882,495.262085 1176.439209,497.211426 1170.268066,497.812012 
	C1163.010376,498.518402 1155.635986,498.197723 1148.316895,498.065674 
	C1136.719849,497.856415 1132.598022,494.068787 1132.149658,482.550049 
	C1131.244507,459.287567 1130.694946,436.011475 1129.881104,412.745056 
	C1129.707642,407.784546 1129.033447,402.841522 1128.358643,397.118652 
	C1128.311279,393.063721 1128.402100,389.772217 1128.697266,386.499146 
	C1129.414185,378.548401 1133.236694,374.279907 1141.109985,373.702484 
	C1151.644653,372.929871 1162.219116,372.425659 1172.779663,372.366974 
	C1181.827393,372.316711 1186.184937,376.435181 1187.199829,385.304138 
	C1187.723999,389.884888 1187.625854,394.536804 1187.867065,400.968597 
	C1188.642334,428.242310 1189.359619,453.703979 1190.076782,479.165680 
	C1189.822998,483.652740 1189.569092,488.139801 1188.946045,493.268188 
z"/>
<path fill="#52CEBD" opacity="1.000000" stroke="none" 
	d="
M1190.586670,478.499298 
	C1189.359619,453.703979 1188.642334,428.242310 1187.918701,401.917786 
	C1192.116577,401.671936 1196.320801,402.288940 1201.942749,403.113983 
	C1198.276123,428.373444 1194.686279,453.103180 1190.586670,478.499298 
z"/>
</svg>