<svg version="1.1" id="Layer_1" xmlns="http://www.w3.org/2000/svg" xmlns:xlink="http://www.w3.org/1999/xlink" x="0px" y="0px" width="100%" viewBox="0 0 2200 1387" enable-background="new 0 0 2200 1387" xml:space="preserve">
<path fill="#0B6E6E" opacity="1.000000" stroke="none" d="&#xA;M867.749268,659.201538 &#xA;&#x9;C864.998413,655.795959 862.487610,652.654724 859.976868,649.513428 &#xA;&#x9;C859.629028,649.641785 859.281250,649.770142 858.933472,649.898499 &#xA;&#x9;C858.274109,684.355408 857.614746,718.812256 856.941406,754.000610 &#xA;&#x9;C849.453613,754.000610 842.350403,754.097046 835.251160,753.969238 &#xA;&#x9;C829.811707,753.871399 822.418823,755.504395 819.496887,752.663086 &#xA;&#x9;C816.630554,749.875977 818.119324,742.413208 818.041870,736.997437 &#xA;&#x9;C817.896484,726.834290 818.064697,716.667114 817.988586,706.502441 &#xA;&#x9;C817.682007,665.557800 817.322815,624.613464 817.007263,583.668884 &#xA;&#x9;C816.956055,577.018616 817.012634,577.011292 823.586426,577.002991 &#xA;&#x9;C830.752075,576.993958 837.918701,577.070740 845.083008,576.972961 &#xA;&#x9;C849.613831,576.911072 852.901245,578.871948 855.701416,582.316895 &#xA;&#x9;C864.757874,593.458801 873.949219,604.491028 883.072632,615.578552 &#xA;&#x9;C893.453369,628.193848 903.796631,640.840027 914.194641,653.441040 &#xA;&#x9;C921.935242,662.821594 929.737244,672.151489 938.605103,682.819031 &#xA;&#x9;C938.605103,647.151917 938.605103,612.893311 938.605103,578.322388 &#xA;&#x9;C952.793152,578.322388 966.029968,578.322388 979.757019,578.322388 &#xA;&#x9;C979.841492,580.223206 979.988586,581.995056 979.988953,583.766846 &#xA;&#x9;C980.001465,637.759216 980.002686,691.751526 979.996399,745.743896 &#xA;&#x9;C979.995422,753.904297 979.878540,753.999084 971.639160,753.999939 &#xA;&#x9;C967.473083,754.000366 963.260132,753.598328 959.150085,754.077942 &#xA;&#x9;C948.586060,755.310913 941.895447,750.082703 935.895081,742.110474 &#xA;&#x9;C927.862305,731.437927 919.023865,721.372131 910.539856,711.038757 &#xA;&#x9;C900.694031,699.046692 890.871582,687.035339 881.010010,675.056213 &#xA;&#x9;C876.706787,669.828918 872.331726,664.660828 867.749268,659.201538 &#xA;z"></path>
<path fill="#0B6E6E" opacity="1.000000" stroke="none" d="&#xA;M1035.254028,600.246704 &#xA;&#x9;C1048.620239,586.659851 1065.085571,579.731567 1082.990112,576.236633 &#xA;&#x9;C1102.904907,572.349304 1122.833862,572.449768 1142.076782,579.968201 &#xA;&#x9;C1162.350586,587.889465 1178.837891,600.321106 1189.531006,619.886230 &#xA;&#x9;C1198.107910,635.579224 1201.813354,652.342957 1200.864014,669.922424 &#xA;&#x9;C1199.590332,693.507874 1191.287476,714.470764 1173.621338,730.718506 &#xA;&#x9;C1157.375122,745.660339 1138.245239,754.126526 1115.898438,756.240479 &#xA;&#x9;C1091.593384,758.539734 1069.190674,754.134216 1048.597534,741.201782 &#xA;&#x9;C1035.591187,733.033936 1026.248291,721.423889 1018.932129,707.987305 &#xA;&#x9;C1012.828491,696.777588 1009.352600,685.054321 1008.891968,672.215271 &#xA;&#x9;C1007.904419,644.694946 1015.823608,620.589722 1035.254028,600.246704 &#xA;M1136.921509,619.498535 &#xA;&#x9;C1126.286621,612.241821 1114.545410,609.102844 1101.706665,609.996216 &#xA;&#x9;C1087.258179,611.001770 1074.519043,615.509583 1064.613525,626.796204 &#xA;&#x9;C1051.502930,641.734741 1048.234741,659.482056 1051.367676,678.084412 &#xA;&#x9;C1056.328613,707.542358 1086.608765,726.712769 1115.012207,720.807373 &#xA;&#x9;C1151.432373,713.235413 1163.173950,682.581909 1158.525024,653.534302 &#xA;&#x9;C1156.324707,639.785400 1149.259521,628.167358 1136.921509,619.498535 &#xA;z"></path>
<path fill="#4CD0BE" opacity="1.000000" stroke="none" d="&#xA;M1990.999756,683.999390 &#xA;&#x9;C1990.999756,664.924377 1990.999756,646.349182 1990.999756,627.774048 &#xA;&#x9;C1990.630249,627.639465 1990.260620,627.504944 1989.891113,627.370361 &#xA;&#x9;C1983.744019,637.603821 1977.471313,647.764282 1971.475098,658.085327 &#xA;&#x9;C1957.844604,681.546997 1944.385498,705.108154 1930.774902,728.581543 &#xA;&#x9;C1927.391724,734.416504 1914.674316,733.491943 1911.052979,727.126648 &#xA;&#x9;C1899.480713,706.785095 1888.077759,686.347046 1876.481812,666.019165 &#xA;&#x9;C1870.040894,654.728149 1863.371704,643.566711 1856.722900,632.395996 &#xA;&#x9;C1856.116699,631.377380 1854.909180,630.716614 1852.995850,629.012146 &#xA;&#x9;C1852.995850,671.496460 1852.995850,712.794861 1852.995850,754.824707 &#xA;&#x9;C1845.508789,753.830688 1838.832642,752.652649 1832.106201,752.164734 &#xA;&#x9;C1828.302002,751.888855 1827.949707,750.078125 1827.958008,747.018066 &#xA;&#x9;C1828.030518,720.190491 1827.999756,693.362610 1827.999756,666.534851 &#xA;&#x9;C1827.999756,636.884155 1827.999756,607.233521 1827.999756,577.258606 &#xA;&#x9;C1834.724243,577.258606 1841.236938,576.984253 1847.695068,577.455383 &#xA;&#x9;C1849.269287,577.570312 1851.049683,579.900696 1852.080811,581.607605 &#xA;&#x9;C1859.461304,593.826111 1866.665894,606.150818 1873.939209,618.434021 &#xA;&#x9;C1884.121948,635.630493 1894.347900,652.801331 1904.491943,670.020508 &#xA;&#x9;C1910.093994,679.529541 1915.566528,689.114868 1921.545898,699.440369 &#xA;&#x9;C1924.537964,694.723022 1927.367798,690.508179 1929.951416,686.147522 &#xA;&#x9;C1945.273926,660.286194 1960.563599,634.405457 1975.807495,608.497803 &#xA;&#x9;C1979.676147,601.922913 1983.348389,595.232178 1987.092041,588.584045 &#xA;&#x9;C1991.909180,580.029907 2000.613403,575.574768 2010.238647,577.070496 &#xA;&#x9;C2013.444824,577.568665 2016.046265,578.958008 2016.041382,583.103455 &#xA;&#x9;C2015.975098,639.424988 2015.992065,695.746643 2015.976196,752.068237 &#xA;&#x9;C2015.976074,752.537659 2015.810059,753.007141 2015.625366,753.988831 &#xA;&#x9;C2009.030273,753.988831 2002.412842,754.194580 1995.814819,753.925232 &#xA;&#x9;C1990.313965,753.700684 1990.104614,748.961670 1990.116943,745.277649 &#xA;&#x9;C1990.166382,730.515991 1990.693115,715.756470 1990.974976,700.994812 &#xA;&#x9;C1991.079956,695.498169 1990.996948,689.997864 1990.999756,683.999390 &#xA;z"></path>
<path fill="#0C6F6F" opacity="1.000000" stroke="none" d="&#xA;M512.937439,609.104858 &#xA;&#x9;C511.384674,609.534729 509.831940,609.964600 508.197601,610.417053 &#xA;&#x9;C508.197601,622.450500 508.197601,634.247437 508.197601,646.726685 &#xA;&#x9;C535.291260,646.726685 562.298462,646.726685 589.669556,646.726685 &#xA;&#x9;C589.669556,657.769958 589.669556,668.133972 589.669556,678.956482 &#xA;&#x9;C584.572998,679.327026 579.669617,679.963318 574.762695,679.991333 &#xA;&#x9;C554.456421,680.107117 534.149048,680.029968 513.842102,680.053528 &#xA;&#x9;C512.025757,680.055664 510.209686,680.273254 507.820312,680.928833 &#xA;&#x9;C506.504211,683.261536 505.220734,685.023438 505.110016,686.856262 &#xA;&#x9;C504.569061,695.809570 504.215118,704.779480 504.039368,713.748230 &#xA;&#x9;C503.877106,722.028809 504.947418,722.994568 513.106140,722.996704 &#xA;&#x9;C540.269104,723.003723 567.432739,723.099426 594.594360,722.908508 &#xA;&#x9;C599.486511,722.874146 601.252014,724.685059 601.033875,729.327209 &#xA;&#x9;C600.862000,732.985229 601.032959,736.658264 600.992798,740.323975 &#xA;&#x9;C600.907410,748.121582 598.178223,750.974609 590.479797,750.982300 &#xA;&#x9;C553.151550,751.019714 515.823364,751.014221 478.495117,750.984619 &#xA;&#x9;C472.130890,750.979614 470.019928,748.919189 470.016357,742.650574 &#xA;&#x9;C469.986847,690.657715 469.991302,638.664795 470.009705,586.671936 &#xA;&#x9;C470.011658,581.194702 471.985535,579.049805 477.499176,579.070251 &#xA;&#x9;C481.966309,579.086792 486.429352,579.915344 490.897736,579.952087 &#xA;&#x9;C505.661591,580.073486 520.427063,580.000366 535.191895,579.999634 &#xA;&#x9;C546.856995,579.999084 558.522400,579.936646 570.187012,580.014343 &#xA;&#x9;C577.436768,580.062683 584.686096,580.290833 591.933899,580.497253 &#xA;&#x9;C595.798401,580.607300 597.431824,582.436707 597.082336,586.514587 &#xA;&#x9;C596.713684,590.815735 597.012695,595.173035 596.997009,599.505737 &#xA;&#x9;C596.970703,606.771545 595.797607,607.984436 588.636658,607.989563 &#xA;&#x9;C565.473145,608.005981 542.309570,607.970337 519.146362,608.047974 &#xA;&#x9;C517.075562,608.054871 515.007019,608.736572 512.937439,609.104858 &#xA;z"></path>
<path fill="#0B6E6E" opacity="1.000000" stroke="none" d="&#xA;M700.551758,718.738464 &#xA;&#x9;C713.699463,721.902588 726.395264,722.409973 739.042847,718.109375 &#xA;&#x9;C747.852478,715.113892 755.125244,709.717773 761.806030,703.533630 &#xA;&#x9;C764.237244,701.283142 765.747375,701.298279 767.944946,703.414001 &#xA;&#x9;C774.162842,709.400269 780.513245,715.249146 786.714233,721.252563 &#xA;&#x9;C789.690796,724.134338 789.415955,728.011475 786.593689,730.759766 &#xA;&#x9;C770.567688,746.365356 750.990356,754.733154 729.134094,756.761230 &#xA;&#x9;C704.631958,759.034851 681.232300,754.376404 660.739502,739.839600 &#xA;&#x9;C640.215210,725.280518 627.633545,705.271851 624.227295,680.399048 &#xA;&#x9;C620.471497,652.974365 627.502808,628.119141 645.047058,606.367432 &#xA;&#x9;C659.968689,587.867371 679.682373,578.302185 702.731018,575.029968 &#xA;&#x9;C724.716431,571.908691 745.914856,574.639587 765.814270,584.985229 &#xA;&#x9;C769.166809,586.728271 772.517883,588.661560 775.411072,591.059998 &#xA;&#x9;C780.759521,595.493896 785.768555,600.337097 791.336670,605.388794 &#xA;&#x9;C782.033020,613.891479 773.159912,622.000732 764.779663,629.659546 &#xA;&#x9;C757.761536,624.650513 751.705383,618.979004 744.579529,615.495667 &#xA;&#x9;C723.399536,605.142212 703.054749,607.097961 684.427551,622.064209 &#xA;&#x9;C667.681030,635.519409 663.314087,653.365784 665.781250,673.886292 &#xA;&#x9;C668.075317,692.967712 678.187683,706.431946 694.393127,715.864319 &#xA;&#x9;C696.228333,716.932434 698.243225,717.691772 700.551758,718.738464 &#xA;z"></path>
<path fill="#4CD0BE" opacity="1.000000" stroke="none" d="&#xA;M1524.312744,691.278015 &#xA;&#x9;C1522.118042,692.447388 1520.229370,693.401550 1518.167969,694.442932 &#xA;&#x9;C1531.612549,713.910950 1545.042603,733.358154 1559.279053,753.973022 &#xA;&#x9;C1549.309692,753.973022 1540.704102,754.534485 1532.254272,753.633972 &#xA;&#x9;C1529.689087,753.360657 1527.209229,749.291870 1525.280273,746.546875 &#xA;&#x9;C1515.648804,732.839539 1506.122314,719.055603 1496.770508,705.156250 &#xA;&#x9;C1494.299316,701.483643 1491.178101,699.982483 1486.970703,699.990417 &#xA;&#x9;C1473.472290,700.015808 1459.973999,699.992737 1446.475586,700.003906 &#xA;&#x9;C1441.139526,700.008362 1439.043091,701.994812 1439.020386,707.382141 &#xA;&#x9;C1438.960449,721.546814 1438.999023,735.711975 1438.998413,749.876892 &#xA;&#x9;C1438.998413,750.692871 1438.998535,751.508789 1438.998535,752.661926 &#xA;&#x9;C1430.379395,752.661926 1421.986694,752.661926 1413.294556,752.661926 &#xA;&#x9;C1413.294556,694.625061 1413.294556,636.571350 1413.294556,578.548645 &#xA;&#x9;C1413.668945,578.359192 1413.947266,578.098145 1414.230957,578.092102 &#xA;&#x9;C1431.657837,577.714600 1449.102417,576.718933 1466.506958,577.193298 &#xA;&#x9;C1481.572021,577.604004 1496.894043,578.256653 1511.561035,581.360535 &#xA;&#x9;C1534.010376,586.111389 1550.579102,600.748962 1554.994629,625.537537 &#xA;&#x9;C1557.899170,641.843628 1556.049438,657.487915 1547.513062,671.943359 &#xA;&#x9;C1542.176514,680.980286 1533.483887,686.164124 1524.312744,691.278015 &#xA;M1472.499878,677.000305 &#xA;&#x9;C1480.422119,676.666626 1488.392944,676.765869 1496.253174,675.880859 &#xA;&#x9;C1504.590454,674.942200 1512.156616,671.737549 1518.575439,665.976868 &#xA;&#x9;C1530.037109,655.690308 1532.061646,643.140442 1528.454102,628.817993 &#xA;&#x9;C1525.086182,615.447693 1517.119385,606.495239 1503.704712,603.486023 &#xA;&#x9;C1496.080566,601.775635 1488.087402,601.370850 1480.235229,601.096741 &#xA;&#x9;C1469.252808,600.713318 1458.237061,601.276978 1447.254883,600.888977 &#xA;&#x9;C1441.375366,600.681335 1439.946655,602.639587 1439.973633,608.534790 &#xA;&#x9;C1440.049194,625.028259 1440.048828,641.522583 1439.956909,658.015930 &#xA;&#x9;C1439.939453,661.110413 1439.359375,664.201782 1439.039185,667.294556 &#xA;&#x9;C1438.432983,673.150574 1439.419189,677.551819 1447.514404,677.097290 &#xA;&#x9;C1455.486328,676.649780 1463.502930,677.000122 1472.499878,677.000305 &#xA;z"></path>
<path fill="#3FCBBA" opacity="1.000000" stroke="none" d="&#xA;M1235.654053,579.726624 &#xA;&#x9;C1237.010498,578.563416 1238.104980,577.109314 1239.209839,577.101379 &#xA;&#x9;C1258.369995,576.963013 1277.561768,576.340088 1296.682983,577.213562 &#xA;&#x9;C1311.781982,577.903320 1327.037720,578.462280 1341.614990,583.828735 &#xA;&#x9;C1361.572998,591.176208 1372.957764,605.670471 1376.859985,625.954712 &#xA;&#x9;C1380.375244,644.227539 1377.097168,661.252625 1365.338257,676.434509 &#xA;&#x9;C1356.762939,687.506104 1345.426392,693.821167 1332.304810,696.805359 &#xA;&#x9;C1323.586304,698.788208 1314.486938,699.400574 1305.517578,699.903381 &#xA;&#x9;C1292.777344,700.617615 1280.001465,700.770874 1267.237793,700.947266 &#xA;&#x9;C1262.432251,701.013672 1262.030762,704.082581 1262.018311,707.557190 &#xA;&#x9;C1261.972168,720.386658 1262.004883,733.216492 1261.998047,746.046143 &#xA;&#x9;C1261.994385,752.965698 1260.954346,753.989868 1253.973877,753.999207 &#xA;&#x9;C1250.141602,754.004333 1246.309326,754.011780 1242.477051,753.997253 &#xA;&#x9;C1236.200562,753.973511 1235.005859,752.793640 1235.004395,746.496155 &#xA;&#x9;C1234.995605,709.506714 1235.000000,672.517212 1235.000000,635.527771 &#xA;&#x9;C1235.000000,618.865845 1234.987915,602.203979 1235.017456,585.542114 &#xA;&#x9;C1235.020630,583.730774 1235.264648,581.919922 1235.654053,579.726624 &#xA;M1314.693604,675.091370 &#xA;&#x9;C1317.277344,674.722961 1319.894287,674.508118 1322.438965,673.958801 &#xA;&#x9;C1332.073120,671.879150 1340.719482,668.213379 1346.215454,659.300537 &#xA;&#x9;C1351.426636,650.849854 1351.872803,641.465515 1350.841675,632.176453 &#xA;&#x9;C1349.536743,620.420654 1343.215332,611.791077 1332.251953,606.568970 &#xA;&#x9;C1325.114868,603.169434 1317.736206,601.924866 1309.953369,601.966003 &#xA;&#x9;C1294.733398,602.046509 1279.512817,601.989624 1263.837646,601.989624 &#xA;&#x9;C1263.392944,603.264282 1262.108398,605.250488 1262.095093,607.245117 &#xA;&#x9;C1261.950439,629.042480 1261.921631,650.842163 1262.188354,672.637207 &#xA;&#x9;C1262.206299,674.106506 1264.876343,676.815430 1266.290405,676.800537 &#xA;&#x9;C1282.172607,676.633972 1298.050171,676.045959 1314.693604,675.091370 &#xA;z"></path>
<path fill="#4CD0BE" opacity="1.000000" stroke="none" d="&#xA;M663.126221,908.777222 &#xA;&#x9;C671.532043,918.391663 679.937866,928.006104 688.554199,937.861267 &#xA;&#x9;C644.210632,976.808044 595.624512,1007.252319 539.251953,1024.589844 &#xA;&#x9;C533.156494,1004.682556 527.057068,984.708191 520.918274,964.745911 &#xA;&#x9;C519.007019,958.530823 520.047852,956.457642 525.646973,954.064148 &#xA;&#x9;C539.666016,948.071472 553.846130,942.383301 567.518372,935.670105 &#xA;&#x9;C584.780762,927.194031 600.742371,916.495300 615.918030,904.649658 &#xA;&#x9;C617.792603,903.186462 620.102539,902.280945 622.609741,901.474976 &#xA;&#x9;C629.531128,909.683289 636.053528,917.533569 642.675659,925.503967 &#xA;&#x9;C643.585388,924.711548 644.549988,923.819763 645.567627,922.993408 &#xA;&#x9;C651.413452,918.246033 657.271973,913.514282 663.126221,908.777222 &#xA;z"></path>
<path fill="#2FBFB0" opacity="1.000000" stroke="none" d="&#xA;M1526.000000,865.000000 &#xA;&#x9;C1526.000000,896.457275 1526.000000,927.414551 1526.000000,958.975464 &#xA;&#x9;C1518.592651,958.975464 1511.373291,959.740051 1504.447754,958.645386 &#xA;&#x9;C1501.103027,958.116638 1497.684814,954.574951 1495.368164,951.572998 &#xA;&#x9;C1477.403076,928.295227 1459.706543,904.810425 1441.910156,881.402344 &#xA;&#x9;C1435.483032,872.948669 1429.013428,864.527161 1422.554443,856.097595 &#xA;&#x9;C1421.768311,855.071350 1420.928589,854.086060 1419.219482,851.979797 &#xA;&#x9;C1419.219482,888.477844 1419.219482,923.346313 1419.219482,958.606812 &#xA;&#x9;C1411.128174,958.606812 1403.406494,958.606812 1395.000000,958.606812 &#xA;&#x9;C1395.000000,956.810913 1395.000000,954.884888 1395.000000,952.958801 &#xA;&#x9;C1395.000000,909.314331 1395.000000,865.669800 1395.000000,822.025330 &#xA;&#x9;C1395.000000,809.901367 1399.034912,807.058594 1410.937012,810.398132 &#xA;&#x9;C1419.403809,812.773743 1424.731445,818.828674 1429.790771,825.402466 &#xA;&#x9;C1442.152832,841.464844 1454.594971,857.465393 1466.986694,873.504883 &#xA;&#x9;C1477.282715,886.831787 1487.543945,900.185730 1497.849731,913.505127 &#xA;&#x9;C1498.765747,914.689087 1499.897095,915.706482 1501.775879,917.700928 &#xA;&#x9;C1501.775879,881.172485 1501.775879,845.985291 1501.775879,810.399597 &#xA;&#x9;C1509.858276,810.399597 1517.580200,810.399597 1526.000000,810.399597 &#xA;&#x9;C1526.000000,828.335693 1526.000000,846.417847 1526.000000,865.000000 &#xA;z"></path>
<path fill="#0B6E6E" opacity="1.000000" stroke="none" d="&#xA;M349.160583,613.054016 &#xA;&#x9;C346.879089,612.369385 344.603699,611.115906 342.315186,611.091492 &#xA;&#x9;C326.171844,610.919495 310.025787,611.000122 293.441162,611.000122 &#xA;&#x9;C293.441162,599.998047 293.441162,589.309387 293.441162,578.350830 &#xA;&#x9;C298.281067,577.893372 303.016022,577.067688 307.752808,577.057007 &#xA;&#x9;C351.565338,576.957825 395.378143,576.997498 439.190887,577.001953 &#xA;&#x9;C445.757477,577.002625 445.976593,577.205688 445.994446,583.692627 &#xA;&#x9;C446.018677,592.506409 446.000488,601.320374 446.000488,610.869995 &#xA;&#x9;C426.987946,610.869995 408.297821,610.869995 388.949951,610.869995 &#xA;&#x9;C388.949951,657.101440 388.949951,702.595398 388.472595,748.557495 &#xA;&#x9;C379.417572,749.681458 370.847565,750.472717 362.260162,750.954590 &#xA;&#x9;C353.894958,751.424072 352.002991,749.458984 352.001709,740.960510 &#xA;&#x9;C351.995697,701.886597 352.072876,662.812378 351.876160,623.739441 &#xA;&#x9;C351.858215,620.173218 350.106934,616.615601 349.160583,613.054016 &#xA;z"></path>
<path fill="#4CD0BE" opacity="1.000000" stroke="none" d="&#xA;M1693.142334,751.966553 &#xA;&#x9;C1681.966797,748.656677 1671.550049,744.759155 1662.224365,738.166992 &#xA;&#x9;C1658.743164,735.706177 1657.898315,733.448425 1659.631104,729.781677 &#xA;&#x9;C1662.116333,724.522705 1664.484497,719.208374 1666.713135,714.332092 &#xA;&#x9;C1675.840576,718.904358 1684.191284,723.689941 1693.005981,727.362061 &#xA;&#x9;C1706.235107,732.873352 1720.138794,734.802551 1734.363037,731.973816 &#xA;&#x9;C1741.142700,730.625549 1748.253296,729.627686 1754.407104,726.746948 &#xA;&#x9;C1764.170044,722.176575 1767.899292,713.301941 1765.854004,702.866760 &#xA;&#x9;C1763.991577,693.365601 1757.646240,686.901550 1748.455566,684.088257 &#xA;&#x9;C1731.114258,678.779846 1713.512939,674.307556 1696.236084,668.808228 &#xA;&#x9;C1689.538330,666.676208 1683.226807,663.045349 1677.098999,659.479248 &#xA;&#x9;C1669.302368,654.941956 1665.475708,647.237244 1663.476562,638.850891 &#xA;&#x9;C1660.213623,625.163208 1661.271606,611.708130 1669.172485,599.750488 &#xA;&#x9;C1676.033691,589.366333 1686.981812,584.781799 1698.384033,580.715881 &#xA;&#x9;C1711.807129,575.929443 1725.520142,574.138367 1739.514160,575.126343 &#xA;&#x9;C1753.963745,576.146545 1767.623657,580.574829 1779.975220,588.208862 &#xA;&#x9;C1782.085693,589.513184 1784.118164,593.577576 1783.665771,595.869263 &#xA;&#x9;C1782.587524,601.329651 1780.001831,606.492432 1777.898438,612.114014 &#xA;&#x9;C1772.181519,609.560425 1766.820312,607.003357 1761.335693,604.746155 &#xA;&#x9;C1743.735107,597.502258 1725.633423,595.127808 1707.276611,601.130920 &#xA;&#x9;C1691.326538,606.347046 1684.931763,617.416809 1689.044312,632.206848 &#xA;&#x9;C1690.643555,637.958740 1695.219238,641.653015 1700.430786,643.624451 &#xA;&#x9;C1711.471436,647.801086 1722.796875,651.221680 1733.986816,655.007874 &#xA;&#x9;C1746.716919,659.315125 1759.751221,662.930359 1772.054077,668.235535 &#xA;&#x9;C1784.407715,673.562561 1790.153442,684.350342 1792.106812,697.587463 &#xA;&#x9;C1794.012085,710.497559 1791.879883,722.109741 1784.094482,732.732422 &#xA;&#x9;C1778.578491,740.258362 1771.213745,745.377014 1762.888672,748.857727 &#xA;&#x9;C1748.304688,754.955261 1732.843750,756.956787 1717.156250,755.862915 &#xA;&#x9;C1709.240112,755.310913 1701.423462,753.335022 1693.142334,751.966553 &#xA;z"></path>
<path fill="#2FBFB0" opacity="1.000000" stroke="none" d="&#xA;M1248.000000,827.041443 &#xA;&#x9;C1248.325684,821.619507 1248.651245,816.690552 1249.001709,811.384888 &#xA;&#x9;C1283.533447,811.384888 1317.915161,811.384888 1352.972534,811.384888 &#xA;&#x9;C1352.972534,816.653381 1353.197632,822.092285 1352.906250,827.503357 &#xA;&#x9;C1352.640503,832.440369 1348.229370,832.755371 1344.914795,832.861450 &#xA;&#x9;C1334.597656,833.191589 1324.262085,832.911499 1313.933594,832.916565 &#xA;&#x9;C1302.222412,832.922241 1290.508545,832.859802 1278.801880,833.107422 &#xA;&#x9;C1276.161865,833.163269 1273.990845,834.361816 1273.911133,838.014526 &#xA;&#x9;C1273.669556,849.091919 1273.027832,860.160522 1272.517822,871.783508 &#xA;&#x9;C1296.920044,871.783508 1320.640869,871.783508 1344.678955,871.783508 &#xA;&#x9;C1344.678955,879.692017 1344.678955,887.078735 1344.678955,894.820068 &#xA;&#x9;C1320.981689,894.820068 1297.380981,894.820068 1273.404907,894.820068 &#xA;&#x9;C1273.249634,896.385681 1273.020752,897.641846 1273.016846,898.898621 &#xA;&#x9;C1272.986572,908.562744 1272.995605,918.226990 1273.001465,927.891235 &#xA;&#x9;C1273.005859,935.259399 1274.698730,936.995361 1281.918091,936.997498 &#xA;&#x9;C1304.412354,937.004089 1326.907593,937.103821 1349.400269,936.909790 &#xA;&#x9;C1353.743774,936.872375 1355.464111,938.050964 1355.072754,942.528442 &#xA;&#x9;C1354.725708,946.497070 1354.818115,950.530823 1355.053467,954.515869 &#xA;&#x9;C1355.265747,958.110474 1353.747803,959.063660 1350.359253,959.053955 &#xA;&#x9;C1318.534302,958.962646 1286.708618,958.938416 1254.883911,959.066040 &#xA;&#x9;C1250.078125,959.085266 1248.543091,956.492371 1248.026245,952.499817 &#xA;&#x9;C1247.877808,951.352539 1248.000244,950.170044 1248.000244,949.003662 &#xA;&#x9;C1247.999878,908.513916 1248.000000,868.024170 1248.000000,827.041443 &#xA;z"></path>
<path fill="#2FBFB0" opacity="1.000000" stroke="none" d="&#xA;M941.036255,934.125549 &#xA;&#x9;C948.732727,916.480286 956.434814,899.240234 964.039856,881.957520 &#xA;&#x9;C970.921448,866.319275 977.546387,850.566162 984.589600,835.001709 &#xA;&#x9;C987.653748,828.230286 991.037842,821.516907 995.072327,815.292847 &#xA;&#x9;C1000.262207,807.286316 1019.045776,808.502319 1022.224609,814.823669 &#xA;&#x9;C1024.999390,820.341370 1027.449951,826.028381 1029.893188,831.705444 &#xA;&#x9;C1035.807129,845.447571 1041.597290,859.242920 1047.502686,872.988708 &#xA;&#x9;C1057.005371,895.107483 1066.560669,917.203552 1076.093750,939.309204 &#xA;&#x9;C1078.790771,945.563171 1081.488159,951.817017 1084.577026,958.979065 &#xA;&#x9;C1075.415771,958.979065 1067.037720,959.098511 1058.671631,958.837646 &#xA;&#x9;C1057.543213,958.802429 1055.990112,957.053955 1055.457275,955.759644 &#xA;&#x9;C1052.179932,947.798828 1048.797485,939.851501 1046.145996,931.673950 &#xA;&#x9;C1044.502563,926.605530 1041.178345,924.981018 1036.601440,925.057495 &#xA;&#x9;C1030.334839,925.162170 1024.072266,925.979431 1017.812439,925.930725 &#xA;&#x9;C1006.883301,925.845703 995.958862,925.275452 985.029907,925.014771 &#xA;&#x9;C971.589844,924.694031 967.524353,930.193970 964.953125,941.102722 &#xA;&#x9;C962.990173,949.431213 960.098389,957.386414 950.232117,959.203491 &#xA;&#x9;C946.230042,959.940491 942.051270,959.829041 937.950378,959.872742 &#xA;&#x9;C935.837036,959.895142 933.718201,959.410889 930.479187,959.020142 &#xA;&#x9;C933.923584,950.996094 937.461548,942.754150 941.036255,934.125549 &#xA;M1010.503113,847.000793 &#xA;&#x9;C1009.655579,845.051270 1008.807983,843.101746 1007.663513,840.469482 &#xA;&#x9;C998.647766,861.828491 990.027344,882.250916 981.371216,902.757935 &#xA;&#x9;C999.162170,902.757935 1016.421204,902.757935 1034.021606,902.757935 &#xA;&#x9;C1026.233398,884.169373 1018.582581,865.908691 1010.503113,847.000793 &#xA;z"></path>
<path fill="#4CD0BE" opacity="1.000000" stroke="none" d="&#xA;M376.651337,967.309998 &#xA;&#x9;C387.530823,968.360229 398.025330,969.151917 408.513824,970.016907 &#xA;&#x9;C411.769684,970.285461 415.248352,970.158691 418.173462,971.335388 &#xA;&#x9;C420.181885,972.143250 421.444183,974.862610 422.954559,976.794312 &#xA;&#x9;C423.198517,977.106567 422.991730,977.767822 423.000763,978.267639 &#xA;&#x9;C423.333374,996.695679 423.557159,1015.126709 424.059174,1033.550171 &#xA;&#x9;C424.237030,1040.076172 422.618683,1041.241333 416.789581,1041.065674 &#xA;&#x9;C408.298401,1040.809814 399.756805,1041.501831 391.303833,1040.878662 &#xA;&#x9;C379.559998,1040.012939 367.669708,1039.256348 356.215576,1036.747681 &#xA;&#x9;C335.333008,1032.174316 314.692657,1026.469116 294.020355,1020.976013 &#xA;&#x9;C287.186584,1019.160095 286.345001,1016.419312 289.007111,1009.807556 &#xA;&#x9;C296.088409,992.219849 303.064026,974.589417 310.028992,956.955200 &#xA;&#x9;C311.889618,952.244446 313.626282,951.486267 318.652924,952.892639 &#xA;&#x9;C334.258972,957.259033 349.876801,961.588440 365.546814,965.716858 &#xA;&#x9;C368.999268,966.626465 372.685486,966.648743 376.651337,967.309998 &#xA;M328.637054,1003.108948 &#xA;&#x9;C331.808838,999.160645 330.146393,995.946533 326.809601,993.381775 &#xA;&#x9;C324.011200,991.230835 320.639343,991.006042 318.564056,994.165283 &#xA;&#x9;C317.377075,995.972290 316.465485,999.479431 317.412537,1000.887085 &#xA;&#x9;C320.369781,1005.281921 324.640533,1005.958618 328.637054,1003.108948 &#xA;M346.933807,994.525879 &#xA;&#x9;C343.499115,990.808533 340.141144,991.824097 336.959595,994.818054 &#xA;&#x9;C334.873322,996.781311 333.156616,999.622131 335.897644,1001.632874 &#xA;&#x9;C338.283417,1003.382935 342.288452,1005.043945 344.660614,1004.191467 &#xA;&#x9;C348.107239,1002.952942 350.002960,999.219971 346.933807,994.525879 &#xA;M365.109924,995.675598 &#xA;&#x9;C364.810608,995.281738 364.516388,994.883850 364.211090,994.494690 &#xA;&#x9;C361.844910,991.479187 359.233246,991.824585 356.475037,993.914185 &#xA;&#x9;C353.951294,995.826050 351.916962,998.013916 353.628937,1001.408936 &#xA;&#x9;C355.269440,1004.662292 357.746094,1005.596985 361.439880,1004.347839 &#xA;&#x9;C365.710388,1002.903748 366.707092,1000.318542 365.109924,995.675598 &#xA;M405.565521,998.836121 &#xA;&#x9;C403.687561,997.628418 401.809631,996.420776 399.931641,995.213074 &#xA;&#x9;C398.966858,996.758118 397.101135,998.429871 397.295532,999.811951 &#xA;&#x9;C397.482819,1001.143372 399.956421,1003.253540 401.141418,1003.080078 &#xA;&#x9;C402.818359,1002.834717 404.234406,1000.806763 405.565521,998.836121 &#xA;z"></path>
<path fill="#0B6E6E" opacity="1.000000" stroke="none" d="&#xA;M104.069916,557.116333 &#xA;&#x9;C111.857330,539.268799 119.489334,521.774475 127.338287,504.378082 &#xA;&#x9;C129.824097,498.868561 132.041809,498.417450 137.350357,501.695404 &#xA;&#x9;C143.796585,505.675842 150.061569,509.962250 156.619461,513.744324 &#xA;&#x9;C160.033966,515.713501 160.206573,517.590698 158.622711,520.958252 &#xA;&#x9;C150.906006,537.365173 142.431183,553.518677 136.188339,570.484436 &#xA;&#x9;C130.769012,585.212219 127.084167,600.744995 124.284576,616.220825 &#xA;&#x9;C121.711281,630.445679 120.248665,645.072266 120.289871,659.516113 &#xA;&#x9;C120.336304,675.798584 122.475937,692.087219 123.982849,708.347412 &#xA;&#x9;C124.573364,714.719238 125.944214,721.017273 126.908623,727.356628 &#xA;&#x9;C127.491653,731.189026 126.856796,734.084106 122.242844,735.118408 &#xA;&#x9;C114.701866,736.808838 107.281868,739.031616 99.770836,740.866150 &#xA;&#x9;C96.530098,741.657654 94.371796,740.601501 93.944962,736.817932 &#xA;&#x9;C93.078171,729.134766 91.903358,721.486572 91.021538,713.804810 &#xA;&#x9;C89.650078,701.857605 88.200127,689.912415 87.212563,677.930969 &#xA;&#x9;C86.680740,671.478699 87.191666,664.947876 86.974991,658.461060 &#xA;&#x9;C85.812195,623.649597 92.702423,590.210449 104.069916,557.116333 &#xA;z"></path>
<path fill="#0B6E6E" opacity="1.000000" stroke="none" d="&#xA;M685.208496,500.066437 &#xA;&#x9;C679.796021,493.682556 674.467163,487.225372 668.953430,480.930206 &#xA;&#x9;C657.730408,468.116577 647.696777,453.871521 634.843140,442.961273 &#xA;&#x9;C611.901978,423.488800 588.991943,403.412567 560.500061,391.878815 &#xA;&#x9;C545.701965,385.888397 530.661499,380.496857 515.734924,374.823334 &#xA;&#x9;C514.528992,374.364960 513.356750,373.817688 512.012329,373.245056 &#xA;&#x9;C514.842407,362.609039 517.628235,352.138947 520.725525,340.498505 &#xA;&#x9;C557.487549,350.138611 590.111389,368.407745 622.593384,388.264008 &#xA;&#x9;C624.831848,390.480469 626.441650,392.623627 628.495483,394.181305 &#xA;&#x9;C646.911560,408.149048 665.048828,422.463226 679.771729,440.457397 &#xA;&#x9;C690.567566,453.652008 700.818054,467.292847 711.672363,481.196899 &#xA;&#x9;C702.398987,487.809113 693.803711,493.937775 685.208496,500.066437 &#xA;z"></path>
<path fill="#4CD0BE" opacity="1.000000" stroke="none" d="&#xA;M685.176025,500.428040 &#xA;&#x9;C693.803711,493.937775 702.398987,487.809113 711.672363,481.196899 &#xA;&#x9;C700.818054,467.292847 690.567566,453.652008 679.771729,440.457397 &#xA;&#x9;C665.048828,422.463226 646.911560,408.149048 628.495483,394.181305 &#xA;&#x9;C626.441650,392.623627 624.831848,390.480469 622.943176,388.262146 &#xA;&#x9;C628.392883,379.314941 633.941650,370.730927 639.422913,362.104004 &#xA;&#x9;C641.128113,359.420166 642.386292,358.092163 645.691467,360.831604 &#xA;&#x9;C656.114929,369.470825 666.988159,377.564911 677.513916,386.084259 &#xA;&#x9;C683.259521,390.734619 689.031433,395.457764 694.124390,400.785797 &#xA;&#x9;C702.878296,409.943726 711.574463,419.232300 719.440857,429.143829 &#xA;&#x9;C728.738098,440.858337 737.341675,453.145630 745.832214,465.469635 &#xA;&#x9;C750.793396,472.670837 755.088013,480.348358 759.412781,487.964752 &#xA;&#x9;C762.216125,492.901855 761.556458,494.464355 756.354248,497.227173 &#xA;&#x9;C743.570862,504.016235 730.756287,510.746490 717.970154,517.530273 &#xA;&#x9;C714.094421,519.586548 710.285461,521.768433 706.418823,523.842285 &#xA;&#x9;C702.548889,525.917847 699.257202,525.523804 696.924988,521.436035 &#xA;&#x9;C692.998352,514.553650 689.070801,507.671753 685.176025,500.428040 &#xA;z"></path>
<path fill="#2FBFB0" opacity="1.000000" stroke="none" d="&#xA;M888.744324,832.641846 &#xA;&#x9;C883.898743,832.382812 882.889099,834.496582 882.906860,838.739380 &#xA;&#x9;C883.066284,876.898987 882.919495,915.059875 883.103271,953.219299 &#xA;&#x9;C883.125854,957.906494 881.769653,959.496582 877.151367,959.075012 &#xA;&#x9;C873.185059,958.713013 869.159424,959.017761 865.160217,958.995483 &#xA;&#x9;C860.180298,958.967834 858.123535,956.931641 858.017029,951.778320 &#xA;&#x9;C857.934387,947.780701 858.000000,943.780029 858.000000,939.780701 &#xA;&#x9;C857.999939,904.456055 858.000000,869.131409 858.000000,832.999878 &#xA;&#x9;C855.790283,832.999878 853.712158,833.052307 851.637268,832.991028 &#xA;&#x9;C841.049011,832.678711 830.463196,832.262146 819.873169,832.042908 &#xA;&#x9;C815.719910,831.956970 814.368896,829.161133 814.108765,825.980896 &#xA;&#x9;C813.718079,821.205017 814.007141,816.373535 814.007141,810.844849 &#xA;&#x9;C819.682312,810.552734 825.050476,810.051880 830.420044,810.037537 &#xA;&#x9;C859.748230,809.959045 889.076721,809.999084 918.405151,810.000793 &#xA;&#x9;C926.687866,810.001282 927.999146,811.273804 927.999939,819.286072 &#xA;&#x9;C928.000305,823.275024 928.000000,827.263916 928.000000,832.390076 &#xA;&#x9;C914.914185,832.390076 902.018250,832.390076 888.744324,832.641846 &#xA;z"></path>
<path fill="#2FBFB0" opacity="1.000000" stroke="none" d="&#xA;M1602.448853,833.224670 &#xA;&#x9;C1591.332275,833.041931 1580.643433,833.048279 1569.954712,832.989868 &#xA;&#x9;C1563.127197,832.952637 1560.238525,829.652283 1561.021240,822.851013 &#xA;&#x9;C1561.451416,819.113220 1561.967407,815.385254 1562.521729,811.051147 &#xA;&#x9;C1564.902832,810.728821 1567.593506,810.053772 1570.285889,810.047546 &#xA;&#x9;C1602.091187,809.973816 1633.896484,809.999939 1665.701904,810.000793 &#xA;&#x9;C1666.867432,810.000793 1668.049561,809.886536 1669.195435,810.039001 &#xA;&#x9;C1672.956055,810.539246 1675.576172,811.761108 1675.106689,816.556946 &#xA;&#x9;C1674.625366,821.473572 1675.000000,826.473999 1675.000000,832.377075 &#xA;&#x9;C1659.952271,832.377075 1645.284058,832.377075 1630.000000,832.377075 &#xA;&#x9;C1630.000000,841.071899 1629.934570,848.834717 1630.011597,856.596069 &#xA;&#x9;C1630.316772,887.336365 1630.692017,918.075867 1630.950439,948.816528 &#xA;&#x9;C1630.970703,951.227417 1630.702271,953.817749 1629.784058,955.993958 &#xA;&#x9;C1629.224121,957.321411 1627.220581,958.746399 1625.766479,958.859863 &#xA;&#x9;C1621.132202,959.221375 1616.451782,959.005188 1611.789307,958.982422 &#xA;&#x9;C1607.333740,958.960632 1605.811646,956.948853 1605.883301,952.297668 &#xA;&#x9;C1606.167847,933.818298 1606.106567,915.331177 1605.955078,896.848633 &#xA;&#x9;C1605.879150,887.587646 1605.058350,878.330139 1605.072876,869.071838 &#xA;&#x9;C1605.089233,858.646851 1605.566895,848.217957 1606.069458,837.801636 &#xA;&#x9;C1606.197144,835.153625 1605.302856,833.876404 1602.448853,833.224670 &#xA;z"></path>
<path fill="#2FBFB0" opacity="1.000000" stroke="none" d="&#xA;M1118.000000,869.000000 &#xA;&#x9;C1118.000000,849.544495 1118.000000,830.589050 1118.000000,811.317505 &#xA;&#x9;C1126.694824,811.317505 1135.077026,811.317505 1143.952881,811.317505 &#xA;&#x9;C1143.952881,853.105469 1143.952881,894.799805 1143.952881,936.823364 &#xA;&#x9;C1168.027710,936.823364 1191.616211,936.823364 1215.601562,936.823364 &#xA;&#x9;C1215.601562,944.191284 1215.601562,951.244385 1215.601562,958.651611 &#xA;&#x9;C1183.380981,958.651611 1151.015625,958.651611 1118.000000,958.651611 &#xA;&#x9;C1118.000000,928.967041 1118.000000,899.233521 1118.000000,869.000000 &#xA;z"></path>
<path fill="#4CD0BE" opacity="1.000000" stroke="none" d="&#xA;M1594.999756,715.000000 &#xA;&#x9;C1594.999756,669.233154 1594.999756,623.966309 1594.999756,577.940491 &#xA;&#x9;C1601.793335,577.940491 1608.366089,577.951660 1614.938843,577.936890 &#xA;&#x9;C1620.045166,577.925415 1621.059570,580.989990 1621.044556,585.387573 &#xA;&#x9;C1620.954834,611.857483 1621.000000,638.327820 1621.000000,664.798035 &#xA;&#x9;C1621.000000,691.934143 1621.003540,719.070190 1620.997314,746.206299 &#xA;&#x9;C1620.995850,752.842163 1619.866089,753.984009 1613.336792,753.997314 &#xA;&#x9;C1607.712646,754.008728 1602.088623,753.999634 1594.999756,753.999634 &#xA;&#x9;C1594.999756,740.888489 1594.999756,728.194275 1594.999756,715.000000 &#xA;z"></path>
<path fill="#4CD0BE" opacity="1.000000" stroke="none" d="&#xA;M455.998962,303.089417 &#xA;&#x9;C456.565460,295.374329 459.623169,293.679138 468.699219,294.995422 &#xA;&#x9;C476.948761,296.191864 485.247559,297.060120 493.534760,297.982147 &#xA;&#x9;C500.193512,298.722961 506.867401,299.327820 514.040222,300.043457 &#xA;&#x9;C510.156494,317.234100 506.375763,334.069824 502.537720,350.892517 &#xA;&#x9;C501.458038,355.624786 500.068726,360.289398 499.087036,365.039917 &#xA;&#x9;C498.391693,368.404663 496.309235,369.374634 493.333588,368.974731 &#xA;&#x9;C481.209442,367.345337 469.057526,365.852570 457.019287,363.724182 &#xA;&#x9;C455.077393,363.380829 452.166138,360.010651 452.238770,358.137970 &#xA;&#x9;C452.786682,344.009674 453.954803,329.904999 454.961365,315.795197 &#xA;&#x9;C455.253265,311.702911 455.649658,307.618073 455.998962,303.089417 &#xA;z"></path>
<path fill="#0B6E6E" opacity="1.000000" stroke="none" d="&#xA;M261.653137,920.324707 &#xA;&#x9;C266.975525,923.687988 271.944305,926.929321 277.029755,929.975952 &#xA;&#x9;C280.038025,931.778076 280.644775,933.887390 279.026825,937.008301 &#xA;&#x9;C275.372589,944.057190 271.861206,951.180664 268.331848,958.293701 &#xA;&#x9;C266.503815,961.977966 264.477936,963.018188 260.554596,960.377197 &#xA;&#x9;C245.534744,950.266724 230.043655,940.838074 215.262802,930.398376 &#xA;&#x9;C207.750244,925.092224 201.343689,918.210022 194.497330,911.974243 &#xA;&#x9;C189.734741,907.636353 185.074600,903.185974 180.379303,898.795837 &#xA;&#x9;C187.535843,892.089111 194.594421,885.609192 201.483444,878.953735 &#xA;&#x9;C204.348846,876.185425 206.360580,875.694519 209.584213,878.922119 &#xA;&#x9;C225.254745,894.612122 242.445267,908.459595 261.653137,920.324707 &#xA;z"></path>
<path fill="#48CDBC" opacity="1.000000" stroke="none" d="&#xA;M354.142883,368.117401 &#xA;&#x9;C342.395844,371.687592 330.648834,375.257782 318.545166,378.404907 &#xA;&#x9;C317.420990,376.288177 316.653503,374.594543 315.886017,372.900879 &#xA;&#x9;C309.169250,352.811432 302.452454,332.722015 295.359039,311.506042 &#xA;&#x9;C306.695740,307.836029 318.622101,303.904816 330.631195,300.245239 &#xA;&#x9;C331.433350,300.000793 333.617676,301.629364 333.881866,302.701477 &#xA;&#x9;C336.089111,311.658997 338.000214,320.689545 339.985901,329.701355 &#xA;&#x9;C340.091797,330.181915 339.878265,330.830505 340.128204,331.167328 &#xA;&#x9;C346.102112,339.218170 345.946594,349.078735 348.256622,358.216217 &#xA;&#x9;C348.694122,359.946808 349.626923,362.364288 352.761444,360.400635 &#xA;&#x9;C353.524872,363.174133 353.833862,365.645752 354.142883,368.117401 &#xA;z"></path>
<path fill="#0B6E6E" opacity="1.000000" stroke="none" d="&#xA;M354.570862,368.086792 &#xA;&#x9;C353.833862,365.645752 353.524872,363.174133 353.124146,360.305328 &#xA;&#x9;C352.023926,352.911438 351.089752,345.902771 349.972931,338.923370 &#xA;&#x9;C349.474365,335.807434 351.253754,334.681458 353.705231,334.228058 &#xA;&#x9;C376.672607,329.980164 399.719910,326.470032 423.189056,328.143768 &#xA;&#x9;C424.542236,328.240265 426.778229,330.212311 426.869965,331.440948 &#xA;&#x9;C427.490692,339.752594 427.908264,348.105316 427.712769,356.428833 &#xA;&#x9;C427.676270,357.981903 424.711517,360.557312 422.862305,360.790497 &#xA;&#x9;C414.187073,361.884460 405.413971,362.170074 396.705475,363.041077 &#xA;&#x9;C387.198242,363.991943 377.722778,365.261810 368.235168,366.406708 &#xA;&#x9;C363.820984,366.939423 359.410858,367.505371 354.570862,368.086792 &#xA;z"></path>
<path fill="#157C77" opacity="1.000000" stroke="none" d="&#xA;M130.984680,664.079712 &#xA;&#x9;C130.660599,661.868835 129.960587,659.637939 130.077393,657.450623 &#xA;&#x9;C130.587906,647.890686 130.832581,638.276001 132.103302,628.805847 &#xA;&#x9;C134.618301,610.062805 138.017624,591.429688 145.143829,573.793762 &#xA;&#x9;C150.383072,560.827637 155.797897,547.885864 162.027649,535.377991 &#xA;&#x9;C170.562836,518.241455 181.521362,502.544708 193.777130,487.864532 &#xA;&#x9;C201.271408,478.887726 208.995468,469.944580 217.658066,462.143036 &#xA;&#x9;C227.540024,453.243317 238.554611,445.596283 249.146606,437.495880 &#xA;&#x9;C250.559006,436.415710 252.359207,435.291779 254.016800,435.233154 &#xA;&#x9;C255.788239,435.170471 258.153931,435.892761 259.191376,437.152557 &#xA;&#x9;C259.805328,437.898102 258.880371,440.975739 257.744385,441.932892 &#xA;&#x9;C246.276871,451.595062 234.020004,460.402649 223.188812,470.714813 &#xA;&#x9;C212.190735,481.185883 201.731247,492.452728 192.484406,504.484314 &#xA;&#x9;C174.368073,528.056458 161.365219,554.579712 152.250977,582.818665 &#xA;&#x9;C145.784363,602.854309 140.970856,623.364807 139.970032,644.563965 &#xA;&#x9;C139.744278,649.345947 139.058441,654.120911 139.093079,658.895386 &#xA;&#x9;C139.116989,662.191467 138.104782,663.908447 133.990585,664.064392 &#xA;&#x9;C132.469742,664.087097 131.727219,664.083374 130.984680,664.079712 &#xA;z"></path>
<path fill="#157C77" opacity="1.000000" stroke="none" d="&#xA;M513.223267,609.422119 &#xA;&#x9;C515.007019,608.736572 517.075562,608.054871 519.146362,608.047974 &#xA;&#x9;C542.309570,607.970337 565.473145,608.005981 588.636658,607.989563 &#xA;&#x9;C595.797607,607.984436 596.970703,606.771545 596.997009,599.505737 &#xA;&#x9;C597.012695,595.173035 596.713684,590.815735 597.082336,586.514587 &#xA;&#x9;C597.431824,582.436707 595.798401,580.607300 591.933899,580.497253 &#xA;&#x9;C584.686096,580.290833 577.436768,580.062683 570.187012,580.014343 &#xA;&#x9;C558.522400,579.936646 546.856995,579.999084 535.191895,579.999634 &#xA;&#x9;C520.427063,580.000366 505.661591,580.073486 490.897736,579.952087 &#xA;&#x9;C486.429352,579.915344 481.966309,579.086792 477.499176,579.070251 &#xA;&#x9;C471.985535,579.049805 470.011658,581.194702 470.009705,586.671936 &#xA;&#x9;C469.991302,638.664795 469.986847,690.657715 470.016357,742.650574 &#xA;&#x9;C470.019928,748.919189 472.130890,750.979614 478.495117,750.984619 &#xA;&#x9;C515.823364,751.014221 553.151550,751.019714 590.479797,750.982300 &#xA;&#x9;C598.178223,750.974609 600.907410,748.121582 600.992798,740.323975 &#xA;&#x9;C601.032959,736.658264 600.862000,732.985229 601.033875,729.327209 &#xA;&#x9;C601.252014,724.685059 599.486511,722.874146 594.594360,722.908508 &#xA;&#x9;C567.432739,723.099426 540.269104,723.003723 513.106140,722.996704 &#xA;&#x9;C504.947418,722.994568 503.877106,722.028809 504.039368,713.748230 &#xA;&#x9;C504.215118,704.779480 504.569061,695.809570 505.110016,686.856262 &#xA;&#x9;C505.220734,685.023438 506.504211,683.261536 507.539978,681.263611 &#xA;&#x9;C507.832825,693.837708 507.832825,706.615173 507.832825,719.887451 &#xA;&#x9;C539.769531,719.887451 571.003479,719.887451 602.616211,719.887451 &#xA;&#x9;C602.616211,731.287292 602.616211,742.195618 602.616211,753.554321 &#xA;&#x9;C557.729675,753.554321 512.720642,753.554321 467.355316,753.554321 &#xA;&#x9;C467.355316,695.002563 467.355316,636.451172 467.355316,577.868469 &#xA;&#x9;C472.611450,576.215454 591.739014,576.872986 599.984497,578.735413 &#xA;&#x9;C599.984497,588.249207 600.113708,597.880127 599.820557,607.498108 &#xA;&#x9;C599.784058,608.697083 597.520264,610.828735 596.271912,610.841003 &#xA;&#x9;C575.287537,611.047241 554.299744,611.082397 533.314453,610.925903 &#xA;&#x9;C526.710083,610.876648 520.110718,610.153809 513.223267,609.422119 &#xA;z"></path>
<path fill="#0B6E6E" opacity="1.000000" stroke="none" d="&#xA;M663.261597,908.483215 &#xA;&#x9;C657.271973,913.514282 651.413452,918.246033 645.567627,922.993408 &#xA;&#x9;C644.549988,923.819763 643.585388,924.711548 642.675659,925.503967 &#xA;&#x9;C636.053528,917.533569 629.531128,909.683289 622.973389,901.496826 &#xA;&#x9;C624.677856,898.221741 625.946655,894.833923 628.242310,892.424377 &#xA;&#x9;C636.618225,883.632507 645.405701,875.234009 653.876648,866.530212 &#xA;&#x9;C655.920044,864.430603 657.424683,864.094482 659.624817,866.096069 &#xA;&#x9;C665.737061,871.656982 672.013245,877.038757 678.084961,882.642639 &#xA;&#x9;C681.982605,886.240051 681.976868,888.308044 678.264038,892.193604 &#xA;&#x9;C674.471558,896.162476 670.475769,899.936584 666.663452,903.887085 &#xA;&#x9;C665.421753,905.173645 664.477295,906.747009 663.261597,908.483215 &#xA;z"></path>
<path fill="#157C77" opacity="1.000000" stroke="none" d="&#xA;M521.338257,471.683228 &#xA;&#x9;C522.362305,472.361450 523.707886,473.231842 523.667664,473.301422 &#xA;&#x9;C521.940918,476.289612 520.353210,479.436432 518.105835,482.000671 &#xA;&#x9;C517.375671,482.833832 514.749023,482.537140 513.215149,482.049011 &#xA;&#x9;C501.488129,478.317291 489.952118,473.916626 478.097778,470.669281 &#xA;&#x9;C458.344818,465.258179 438.039001,464.338318 417.668610,465.078735 &#xA;&#x9;C412.642914,465.261414 407.648376,466.302399 402.047852,467.025146 &#xA;&#x9;C402.047852,462.637177 401.283295,458.458130 402.371246,454.835419 &#xA;&#x9;C402.912933,453.031769 406.755005,451.410889 409.264008,451.128540 &#xA;&#x9;C443.057434,447.325439 475.499817,453.421265 507.082062,465.148987 &#xA;&#x9;C511.854156,466.921051 516.375793,469.367371 521.338257,471.683228 &#xA;z"></path>
<path fill="#0B6E6E" opacity="1.000000" stroke="none" d="&#xA;M688.996094,820.014954 &#xA;&#x9;C694.171509,810.608154 699.234741,801.553772 704.410950,792.297302 &#xA;&#x9;C714.142822,796.803223 723.678284,801.242065 733.238281,805.627502 &#xA;&#x9;C735.577637,806.700500 736.709778,807.958069 735.150452,810.603027 &#xA;&#x9;C728.568604,821.766663 722.075684,832.982666 715.190674,844.796387 &#xA;&#x9;C705.155762,838.560181 695.718811,832.695618 685.790894,826.525879 &#xA;&#x9;C686.869690,824.377869 687.876770,822.372620 688.996094,820.014954 &#xA;z"></path>
<path fill="#0B6E6E" opacity="1.000000" stroke="none" d="&#xA;M225.215042,392.515259 &#xA;&#x9;C226.284668,392.727600 227.331909,392.868347 227.740189,393.454315 &#xA;&#x9;C233.646912,401.931488 239.467865,410.468414 245.582703,419.389832 &#xA;&#x9;C236.877655,426.564575 228.638794,433.355072 220.268356,440.254059 &#xA;&#x9;C212.608734,432.043976 205.303421,424.213684 197.585266,415.940918 &#xA;&#x9;C206.881836,408.012817 215.888672,400.331787 225.215042,392.515259 &#xA;z"></path>
<path fill="#0B6E6E" opacity="1.000000" stroke="none" d="&#xA;M315.529266,372.906372 &#xA;&#x9;C316.653503,374.594543 317.420990,376.288177 318.156372,378.329437 &#xA;&#x9;C310.250580,382.694794 302.417786,386.798767 294.433899,390.583954 &#xA;&#x9;C293.712799,390.925812 291.433746,389.511780 290.866852,388.406219 &#xA;&#x9;C286.366364,379.629089 282.105347,370.729187 277.482910,361.278442 &#xA;&#x9;C285.495300,357.442902 292.926453,353.557922 300.688873,350.519165 &#xA;&#x9;C301.867981,350.057587 305.318573,353.136444 306.436615,355.254364 &#xA;&#x9;C308.722015,359.583771 310.013855,364.426270 311.977142,368.943451 &#xA;&#x9;C312.629974,370.445465 314.084503,371.598999 315.529266,372.906372 &#xA;z"></path>
<path fill="#0B6E6E" opacity="1.000000" stroke="none" d="&#xA;M182.728333,446.227600 &#xA;&#x9;C187.839722,450.965485 192.696945,455.453461 197.972427,460.327881 &#xA;&#x9;C193.926178,465.447174 190.068283,470.473419 185.991501,475.315369 &#xA;&#x9;C185.437408,475.973480 183.403214,476.267761 182.705170,475.786499 &#xA;&#x9;C175.255341,470.650146 167.866241,465.415833 160.676300,459.925720 &#xA;&#x9;C159.826630,459.276947 159.558624,456.463013 160.229630,455.467255 &#xA;&#x9;C163.258453,450.972687 166.686310,446.743011 170.041336,442.473633 &#xA;&#x9;C172.517914,439.322052 175.060501,439.145630 177.862045,442.274506 &#xA;&#x9;C179.159607,443.723633 180.922333,444.756226 182.728333,446.227600 &#xA;z"></path>
<path fill="#157B76" opacity="1.000000" stroke="none" d="&#xA;M349.101593,613.515503 &#xA;&#x9;C350.106934,616.615601 351.858215,620.173218 351.876160,623.739441 &#xA;&#x9;C352.072876,662.812378 351.995697,701.886597 352.001709,740.960510 &#xA;&#x9;C352.002991,749.458984 353.894958,751.424072 362.260162,750.954590 &#xA;&#x9;C370.847565,750.472717 379.417572,749.681458 388.410034,749.023804 &#xA;&#x9;C390.149811,752.470032 388.747589,753.990601 385.274902,753.993469 &#xA;&#x9;C374.467926,754.002441 363.660797,753.961060 352.854126,754.019897 &#xA;&#x9;C350.108856,754.034851 348.902832,752.890015 348.983917,750.143799 &#xA;&#x9;C349.072205,747.153809 348.999329,744.158997 349.000305,741.166321 &#xA;&#x9;C349.014038,698.769897 349.028381,656.373413 349.101593,613.515503 &#xA;z"></path>
<path fill="#4A8C88" opacity="1.000000" stroke="none" d="&#xA;M447.798004,855.999756 &#xA;&#x9;C468.527802,855.973145 486.984100,848.258667 505.908539,842.548584 &#xA;&#x9;C509.946411,841.330139 513.989014,840.127441 518.292297,838.838867 &#xA;&#x9;C509.459961,854.779053 419.314453,868.164185 398.493469,856.000061 &#xA;&#x9;C415.617249,856.000061 431.468201,856.000061 447.798004,855.999756 &#xA;z"></path>
<path fill="#4A8C88" opacity="1.000000" stroke="none" d="&#xA;M233.331055,659.642517 &#xA;&#x9;C232.705795,648.107300 238.340195,625.809814 243.316452,622.570251 &#xA;&#x9;C242.644669,629.272705 242.009567,635.171082 241.470062,641.078247 &#xA;&#x9;C240.143997,655.597412 237.996796,669.992737 240.617630,684.726074 &#xA;&#x9;C242.509506,695.361328 242.543976,706.326965 242.766113,717.278015 &#xA;&#x9;C239.159042,711.968933 237.433075,706.174500 236.954514,699.840637 &#xA;&#x9;C235.951599,686.567200 234.692184,673.313049 233.331055,659.642517 &#xA;z"></path>
<path fill="#4A8C88" opacity="1.000000" stroke="none" d="&#xA;M209.355957,864.691956 &#xA;&#x9;C204.264282,859.565247 198.827179,854.734009 194.143356,849.258423 &#xA;&#x9;C177.587433,829.903870 167.341415,806.544495 154.246765,785.005493 &#xA;&#x9;C146.395264,772.090759 144.113052,756.780884 140.041458,742.318176 &#xA;&#x9;C138.713943,737.602722 137.657761,732.809082 136.565460,728.031128 &#xA;&#x9;C136.386002,727.246094 136.662781,726.356689 136.728714,725.515564 &#xA;&#x9;C137.285492,725.375549 137.842285,725.235535 138.399078,725.095581 &#xA;&#x9;C139.584946,728.875610 141.157227,732.582458 141.889465,736.448425 &#xA;&#x9;C144.987106,752.802673 150.538330,768.357666 157.257355,783.482117 &#xA;&#x9;C166.550293,804.400452 178.637024,823.710754 192.508926,841.880188 &#xA;&#x9;C198.087524,849.187134 204.149460,856.125061 209.845871,863.760864 &#xA;&#x9;C209.585556,864.424561 209.470749,864.558228 209.355957,864.691956 &#xA;z"></path>
<path fill="#4A8C88" opacity="1.000000" stroke="none" d="&#xA;M627.263184,498.763428 &#xA;&#x9;C617.155457,488.381012 614.571411,484.410614 614.197876,478.828461 &#xA;&#x9;C624.473999,481.717590 656.980286,521.954468 655.150696,530.546021 &#xA;&#x9;C644.269165,521.111938 636.580688,509.442780 627.263184,498.763428 &#xA;z"></path>
<path fill="#4A8C88" opacity="1.000000" stroke="none" d="&#xA;M279.644440,788.309692 &#xA;&#x9;C282.167999,790.111572 285.039490,791.576843 287.159790,793.768799 &#xA;&#x9;C303.143280,810.293213 320.854523,824.578552 340.853760,835.977295 &#xA;&#x9;C341.525635,836.360168 342.105316,836.904724 342.727966,837.373962 &#xA;&#x9;C342.619812,837.865540 342.511658,838.357056 342.403503,838.848633 &#xA;&#x9;C340.107330,838.494324 337.451721,838.766846 335.570892,837.688293 &#xA;&#x9;C317.686371,827.432617 300.904388,815.662476 286.923798,800.330994 &#xA;&#x9;C283.974884,797.097229 281.631256,793.311462 279.154480,789.244873 &#xA;&#x9;C279.414978,788.576355 279.529724,788.442993 279.644440,788.309692 &#xA;z"></path>
<path fill="#4A8C88" opacity="1.000000" stroke="none" d="&#xA;M563.244141,810.256226 &#xA;&#x9;C553.803833,817.946594 544.728333,825.532532 535.353760,832.728882 &#xA;&#x9;C532.658203,834.798218 529.161865,836.623108 526.662903,834.450989 &#xA;&#x9;C544.809265,818.454590 563.036743,802.386597 581.264282,786.318665 &#xA;&#x9;C581.623169,786.440979 581.982056,786.563354 582.340942,786.685669 &#xA;&#x9;C581.392273,788.795105 580.876221,791.284607 579.416931,792.945190 &#xA;&#x9;C574.284790,798.785278 568.828552,804.340454 563.244141,810.256226 &#xA;z"></path>
<path fill="#4A8C88" opacity="1.000000" stroke="none" d="&#xA;M370.928894,868.085693 &#xA;&#x9;C350.894073,864.063599 332.777191,855.390991 315.476868,844.889160 &#xA;&#x9;C308.910065,840.902954 302.648590,836.388062 296.453400,831.834595 &#xA;&#x9;C295.008698,830.772766 294.400604,828.572632 293.407593,826.896240 &#xA;&#x9;C293.971375,826.397705 294.535187,825.899170 295.098999,825.400696 &#xA;&#x9;C299.048798,828.098083 303.117523,830.638306 306.927643,833.520386 &#xA;&#x9;C322.479370,845.283691 339.486206,854.305298 357.747620,861.070618 &#xA;&#x9;C362.325500,862.766602 366.741943,864.898499 371.264587,867.267761 &#xA;&#x9;C371.174011,867.832275 371.051453,867.958984 370.928894,868.085693 &#xA;z"></path>
<path fill="#4A8C88" opacity="1.000000" stroke="none" d="&#xA;M256.168152,576.871704 &#xA;&#x9;C264.894592,556.305298 280.201324,541.201660 295.498993,526.154175 &#xA;&#x9;C299.340271,522.375732 304.033539,519.463440 308.335236,516.153076 &#xA;&#x9;C308.668518,516.482117 309.001801,516.811157 309.335083,517.140198 &#xA;&#x9;C308.338654,518.479065 307.529388,520.023804 306.317657,521.125916 &#xA;&#x9;C288.804565,537.054688 274.936676,556.076294 260.575928,574.691467 &#xA;&#x9;C259.617859,575.933350 257.661804,576.405273 256.168152,576.871704 &#xA;z"></path>
<path fill="#4A8C88" opacity="1.000000" stroke="none" d="&#xA;M273.355560,781.689087 &#xA;&#x9;C268.626556,775.608337 262.948669,770.032043 259.386017,763.331177 &#xA;&#x9;C253.721924,752.677734 249.347900,741.324097 244.718964,730.146240 &#xA;&#x9;C243.768997,727.852234 244.097992,725.028625 244.736282,722.219360 &#xA;&#x9;C254.487396,741.549255 264.238495,760.879150 273.844543,780.749512 &#xA;&#x9;C273.584839,781.422974 273.470215,781.556030 273.355560,781.689087 &#xA;z"></path>
<path fill="#4A8C88" opacity="1.000000" stroke="none" d="&#xA;M547.018677,434.997559 &#xA;&#x9;C545.293884,433.418945 543.930481,431.932831 542.332275,430.190826 &#xA;&#x9;C549.716064,427.797302 580.822083,446.003204 581.940308,454.265991 &#xA;&#x9;C576.839050,451.803467 572.482178,449.984528 568.406799,447.670044 &#xA;&#x9;C561.306458,443.637695 554.379517,439.299835 547.018677,434.997559 &#xA;z"></path>
<path fill="#4A8C88" opacity="1.000000" stroke="none" d="&#xA;M484.218658,414.931946 &#xA;&#x9;C477.740997,413.604736 471.650146,412.496033 465.685547,410.911987 &#xA;&#x9;C464.270935,410.536255 463.279602,408.566711 462.093567,407.330292 &#xA;&#x9;C463.701630,406.704651 465.434509,405.330597 466.897522,405.574585 &#xA;&#x9;C476.528961,407.180817 486.124878,409.029144 495.678223,411.053894 &#xA;&#x9;C497.986267,411.543060 500.090942,412.991547 503.273590,414.450043 &#xA;&#x9;C496.088104,419.243469 490.368469,414.883728 484.218658,414.931946 &#xA;z"></path>
<path fill="#4A8C88" opacity="1.000000" stroke="none" d="&#xA;M130.996246,664.540405 &#xA;&#x9;C131.727219,664.083374 132.469742,664.087097 133.582062,664.102783 &#xA;&#x9;C134.970276,678.880554 136.010910,693.644897 136.990692,708.413269 &#xA;&#x9;C137.221344,711.889893 140.204453,715.823486 134.489807,719.229004 &#xA;&#x9;C132.127029,700.877319 130.879852,682.996643 130.996246,664.540405 &#xA;z"></path>
<path fill="#A8E0D6" opacity="1.000000" stroke="none" d="&#xA;M252.705841,823.197632 &#xA;&#x9;C251.714371,821.883728 251.058029,820.756836 250.240402,819.762512 &#xA;&#x9;C243.871460,812.016602 237.471451,804.296265 230.586548,795.969971 &#xA;&#x9;C236.346008,795.085632 251.309052,810.953857 261.591400,827.156616 &#xA;&#x9;C262.204468,828.122620 262.210175,829.474060 262.498474,830.646118 &#xA;&#x9;C261.746552,831.126221 260.994659,831.606323 260.242737,832.086426 &#xA;&#x9;C257.817230,829.206299 255.391739,826.326233 252.705841,823.197632 &#xA;z"></path>
<path fill="#4A8C88" opacity="1.000000" stroke="none" d="&#xA;M417.399811,877.684021 &#xA;&#x9;C405.766632,875.988403 394.546844,874.550110 383.355225,872.918396 &#xA;&#x9;C382.027649,872.724854 380.854248,871.473999 379.981628,869.775696 &#xA;&#x9;C396.272797,870.795227 412.266632,872.236023 427.959442,875.641663 &#xA;&#x9;C427.904297,876.388855 427.849152,877.135986 427.794006,877.883179 &#xA;&#x9;C424.469879,877.883179 421.145782,877.883179 417.399811,877.684021 &#xA;z"></path>
<path fill="#4A8C88" opacity="1.000000" stroke="none" d="&#xA;M223.071106,876.914307 &#xA;&#x9;C229.060654,881.135315 235.073990,885.323059 241.033585,889.585938 &#xA;&#x9;C248.358856,894.825500 255.662598,900.096008 262.925629,905.421326 &#xA;&#x9;C265.288300,907.153625 267.494110,909.099731 270.219025,911.311218 &#xA;&#x9;C262.670197,911.651306 238.712860,894.625366 222.713974,877.720581 &#xA;&#x9;C222.826111,877.167786 222.948608,877.041077 223.071106,876.914307 &#xA;z"></path>
<path fill="#A8E0D6" opacity="1.000000" stroke="none" d="&#xA;M215.997467,768.988159 &#xA;&#x9;C211.452713,759.641541 206.510986,750.803772 207.021820,740.377075 &#xA;&#x9;C207.511765,740.197510 208.001709,740.017944 208.491653,739.838318 &#xA;&#x9;C214.577606,753.676208 220.663559,767.514038 226.749527,781.351929 &#xA;&#x9;C225.956985,781.787720 225.164444,782.223511 224.371918,782.659363 &#xA;&#x9;C221.596802,778.228516 218.821686,773.797729 215.997467,768.988159 &#xA;z"></path>
<path fill="#A8E0D6" opacity="1.000000" stroke="none" d="&#xA;M581.058716,864.029663 &#xA;&#x9;C582.320312,863.552551 584.102905,862.860962 584.759460,863.441895 &#xA;&#x9;C587.478210,865.847473 589.856567,868.637878 592.341553,871.267517 &#xA;&#x9;C597.089417,869.081299 596.498474,866.353149 593.899902,863.442566 &#xA;&#x9;C591.764099,861.050293 590.302551,858.617310 591.972656,854.823914 &#xA;&#x9;C593.169373,855.872192 594.029724,856.531494 594.780396,857.298157 &#xA;&#x9;C601.711121,864.376038 601.674316,870.841675 594.251221,877.093079 &#xA;&#x9;C591.286499,879.589844 588.964355,876.820190 587.394287,874.687012 &#xA;&#x9;C585.015625,871.455200 583.147095,867.847961 581.058716,864.029663 &#xA;z"></path>
<path fill="#A8E0D6" opacity="1.000000" stroke="none" d="&#xA;M197.000000,665.798462 &#xA;&#x9;C196.939896,671.175537 196.939896,671.175537 191.872086,673.058777 &#xA;&#x9;C193.395142,659.033813 194.886108,645.304321 196.407516,631.294556 &#xA;&#x9;C198.726639,630.577820 200.357117,630.746216 200.010880,634.062622 &#xA;&#x9;C199.229492,641.546997 198.497849,649.036621 197.767792,656.526245 &#xA;&#x9;C197.481781,659.460449 197.254196,662.400208 197.000000,665.798462 &#xA;z"></path>
<path fill="#4A8C88" opacity="1.000000" stroke="none" d="&#xA;M245.044266,600.168457 &#xA;&#x9;C247.838516,593.524414 250.582397,587.272095 253.326279,581.019775 &#xA;&#x9;C253.919876,580.944702 254.513474,580.869690 255.107071,580.794617 &#xA;&#x9;C255.493118,582.313965 256.590881,584.089050 256.151550,585.311890 &#xA;&#x9;C252.905624,594.346619 249.387787,603.284851 245.855331,612.213806 &#xA;&#x9;C245.399139,613.366943 244.368759,614.292969 242.939621,616.220947 &#xA;&#x9;C240.955887,609.690918 243.240234,605.163757 245.044266,600.168457 &#xA;z"></path>
<path fill="#2FBFB0" opacity="1.000000" stroke="none" d="&#xA;M199.698517,624.651733 &#xA;&#x9;C197.529587,626.794434 196.708466,625.723206 197.057693,623.750671 &#xA;&#x9;C198.959946,613.006470 199.834061,601.943359 207.288300,592.252319 &#xA;&#x9;C207.525375,593.483032 208.221558,594.837952 207.927597,595.925049 &#xA;&#x9;C205.360886,605.417847 202.617081,614.862671 199.698517,624.651733 &#xA;z"></path>
<path fill="#4A8C88" opacity="1.000000" stroke="none" d="&#xA;M357.152557,842.953857 &#xA;&#x9;C368.236267,846.270203 378.924316,849.534973 389.612396,852.799744 &#xA;&#x9;C389.652893,853.291138 389.693420,853.782532 389.733917,854.273926 &#xA;&#x9;C388.136505,854.529480 386.365906,855.365479 384.969208,854.948547 &#xA;&#x9;C373.957428,851.662415 363.017151,848.136841 352.054871,844.684998 &#xA;&#x9;C352.088348,844.090759 352.121796,843.496582 352.155273,842.902344 &#xA;&#x9;C353.689148,842.902344 355.223053,842.902344 357.152557,842.953857 &#xA;z"></path>
<path fill="#157C77" opacity="1.000000" stroke="none" d="&#xA;M524.845825,420.373322 &#xA;&#x9;C524.691956,421.769165 524.262573,423.839172 523.866821,423.832764 &#xA;&#x9;C517.225769,423.725006 510.706390,423.052155 506.032959,417.376007 &#xA;&#x9;C509.612915,413.451599 518.207214,414.801636 524.845825,420.373322 &#xA;z"></path>
<path fill="#A8E0D6" opacity="1.000000" stroke="none" d="&#xA;M349.460754,898.786743 &#xA;&#x9;C352.577698,900.502625 352.577698,900.502625 350.596497,904.672485 &#xA;&#x9;C348.915466,904.113220 347.249756,903.559082 345.619476,903.016663 &#xA;&#x9;C342.678833,906.271118 343.462952,909.953247 347.444641,915.902649 &#xA;&#x9;C345.273895,915.411316 342.903381,915.309692 340.984894,914.326294 &#xA;&#x9;C338.770050,913.191101 337.842316,911.354248 338.898926,908.371887 &#xA;&#x9;C341.737579,900.359741 343.034302,898.838074 349.460754,898.786743 &#xA;z"></path>
<path fill="#A8E0D6" opacity="1.000000" stroke="none" d="&#xA;M198.673096,716.245178 &#xA;&#x9;C197.612732,714.217285 196.285294,712.541016 196.110931,710.752380 &#xA;&#x9;C195.175308,701.154114 194.526810,691.527893 193.779144,681.911316 &#xA;&#x9;C194.231674,681.840820 194.684204,681.770325 195.136719,681.699829 &#xA;&#x9;C197.392960,693.875549 199.649200,706.051270 201.905426,718.226990 &#xA;&#x9;C201.377029,718.384460 200.848618,718.541931 200.320221,718.699402 &#xA;&#x9;C199.859528,717.981262 199.398849,717.263123 198.673096,716.245178 &#xA;z"></path>
<path fill="#A8E0D6" opacity="1.000000" stroke="none" d="&#xA;M555.001221,883.375488 &#xA;&#x9;C555.490479,881.888367 555.978760,880.828369 556.546143,879.596680 &#xA;&#x9;C559.490295,883.798279 562.106567,887.399231 564.534241,891.123169 &#xA;&#x9;C564.953186,891.765930 564.954224,893.404968 564.495728,893.774902 &#xA;&#x9;C562.056824,895.742371 559.409973,897.452209 556.473877,899.503540 &#xA;&#x9;C555.936218,893.774780 555.468201,888.788635 555.001221,883.375488 &#xA;z"></path>
<path fill="#A8E0D6" opacity="1.000000" stroke="none" d="&#xA;M491.913025,924.007324 &#xA;&#x9;C491.016296,923.721619 490.055634,923.363220 490.070862,923.052673 &#xA;&#x9;C490.312103,918.131592 490.101501,913.087219 491.168549,908.334595 &#xA;&#x9;C492.385712,902.913269 496.997986,905.059937 501.246735,905.175232 &#xA;&#x9;C497.002655,909.234802 493.519989,912.954590 495.766602,919.097351 &#xA;&#x9;C496.152924,920.153687 493.533844,922.309143 491.913025,924.007324 &#xA;z"></path>
<path fill="#A8E0D6" opacity="1.000000" stroke="none" d="&#xA;M397.155762,865.997925 &#xA;&#x9;C393.394958,864.913269 390.062378,863.830750 386.729828,862.748230 &#xA;&#x9;C386.767487,862.470276 386.805115,862.192322 386.842773,861.914307 &#xA;&#x9;C400.195679,863.494324 413.548615,865.074341 426.901520,866.654358 &#xA;&#x9;C417.055237,868.183533 407.264343,868.717041 397.155762,865.997925 &#xA;z"></path>
<path fill="#A8E0D6" opacity="1.000000" stroke="none" d="&#xA;M642.953857,818.459717 &#xA;&#x9;C643.529968,820.739685 643.861145,822.718079 644.308716,825.392029 &#xA;&#x9;C640.780884,823.570923 638.104553,822.158386 635.401062,820.799988 &#xA;&#x9;C629.112915,817.640564 629.107605,817.651062 633.454224,810.859680 &#xA;&#x9;C636.567261,813.314697 639.638123,815.736450 642.953857,818.459717 &#xA;z"></path>
<path fill="#A8E0D6" opacity="1.000000" stroke="none" d="&#xA;M649.513794,814.989014 &#xA;&#x9;C645.849976,812.591003 642.467346,810.348450 639.407043,807.729248 &#xA;&#x9;C638.401489,806.868652 638.230896,805.032349 637.577942,803.389099 &#xA;&#x9;C644.510498,801.772949 647.764587,807.452637 652.531555,809.400024 &#xA;&#x9;C654.551941,810.225342 652.604187,814.526489 649.513794,814.989014 &#xA;z"></path>
<path fill="#157C77" opacity="1.000000" stroke="none" d="&#xA;M599.872437,465.778015 &#xA;&#x9;C593.137329,465.639801 588.931091,460.885315 583.810974,457.506195 &#xA;&#x9;C588.240784,452.116241 596.184387,456.350067 599.872437,465.778015 &#xA;z"></path>
<path fill="#A8E0D6" opacity="1.000000" stroke="none" d="&#xA;M328.656708,483.235138 &#xA;&#x9;C329.839172,482.055450 330.713257,480.682190 331.587372,479.308929 &#xA;&#x9;C332.043945,479.195831 332.500519,479.082764 332.957092,478.969696 &#xA;&#x9;C333.547729,481.570831 335.289581,484.676636 334.428345,486.641357 &#xA;&#x9;C333.423676,488.933289 330.144592,490.228210 327.852356,491.955719 &#xA;&#x9;C326.146393,488.688110 324.440430,485.420502 322.734467,482.152863 &#xA;&#x9;C323.208130,481.855621 323.681763,481.558350 324.155426,481.261078 &#xA;&#x9;C325.553070,481.854584 326.950714,482.448059 328.656708,483.235138 &#xA;z"></path>
<path fill="#A8E0D6" opacity="1.000000" stroke="none" d="&#xA;M536.493286,900.999512 &#xA;&#x9;C536.848694,903.091125 537.407471,905.075195 536.836914,906.650269 &#xA;&#x9;C536.280212,908.187134 534.569641,909.306030 533.746704,910.196228 &#xA;&#x9;C531.528076,905.125977 529.663879,901.160278 528.088928,897.082886 &#xA;&#x9;C527.628967,895.891968 527.993225,894.382568 527.979675,893.019165 &#xA;&#x9;C529.274109,893.470520 530.962708,893.559204 531.781189,894.448547 &#xA;&#x9;C533.497437,896.313477 534.755920,898.599670 536.493286,900.999512 &#xA;z"></path>
<path fill="#A8E0D6" opacity="1.000000" stroke="none" d="&#xA;M509.967346,910.016479 &#xA;&#x9;C510.746124,907.848450 511.495300,906.074646 512.386963,903.963440 &#xA;&#x9;C515.491150,907.878052 517.842712,911.971375 514.916626,916.314270 &#xA;&#x9;C513.619629,918.239319 510.187286,918.725708 507.724213,919.865112 &#xA;&#x9;C507.457916,919.405579 507.191620,918.945984 506.925323,918.486389 &#xA;&#x9;C507.929443,915.794556 508.933594,913.102661 509.967346,910.016479 &#xA;z"></path>
<path fill="#A8E0D6" opacity="1.000000" stroke="none" d="&#xA;M298.011169,895.455322 &#xA;&#x9;C298.359070,892.372498 298.716095,889.697449 299.080139,886.969910 &#xA;&#x9;C302.953491,887.981812 306.307495,888.858032 310.690613,890.003052 &#xA;&#x9;C307.440369,892.707336 305.050140,895.064148 302.269897,896.794189 &#xA;&#x9;C301.388000,897.342957 299.466217,896.220703 298.011169,895.455322 &#xA;z"></path>
<path fill="#A8E0D6" opacity="1.000000" stroke="none" d="&#xA;M217.252228,565.344482 &#xA;&#x9;C219.127777,563.771057 220.796143,562.500122 222.464493,561.229187 &#xA;&#x9;C222.801361,561.417725 223.138229,561.606201 223.475098,561.794678 &#xA;&#x9;C220.598618,567.606079 217.722137,573.417480 214.845657,579.228882 &#xA;&#x9;C214.185425,579.200989 213.525177,579.173035 212.864944,579.145081 &#xA;&#x9;C212.589554,577.370667 211.610123,575.312927 212.186295,573.881226 &#xA;&#x9;C213.362717,570.958069 215.376297,568.371948 217.252228,565.344482 &#xA;z"></path>
<path fill="#A8E0D6" opacity="1.000000" stroke="none" d="&#xA;M239.420609,824.946167 &#xA;&#x9;C239.785141,825.832764 240.187866,826.810303 239.907715,827.080872 &#xA;&#x9;C235.785538,831.062500 231.593399,834.973145 227.344803,838.819824 &#xA;&#x9;C226.973785,839.155884 226.090988,838.926636 225.450897,838.959656 &#xA;&#x9;C224.967194,833.679199 230.301483,828.178894 239.420609,824.946167 &#xA;z"></path>
<path fill="#A8E0D6" opacity="1.000000" stroke="none" d="&#xA;M322.844604,902.001831 &#xA;&#x9;C327.640991,903.680542 327.640991,903.680542 327.857758,907.378113 &#xA;&#x9;C321.658325,909.606079 315.022186,906.558777 313.580627,900.406433 &#xA;&#x9;C316.647491,900.958923 319.536621,901.479370 322.844604,902.001831 &#xA;z"></path>
<path fill="#A8E0D6" opacity="1.000000" stroke="none" d="&#xA;M625.987366,842.493958 &#xA;&#x9;C625.997681,844.197327 625.997681,845.486816 625.997681,847.653564 &#xA;&#x9;C619.184998,845.389221 617.018311,839.503784 613.486572,834.834167 &#xA;&#x9;C618.719604,835.307312 622.663208,838.105286 625.987366,842.493958 &#xA;z"></path>
<path fill="#A8E0D6" opacity="1.000000" stroke="none" d="&#xA;M658.188477,785.694214 &#xA;&#x9;C660.892395,787.476746 663.330200,788.983582 666.303406,790.821411 &#xA;&#x9;C658.874084,794.224792 654.597351,788.032898 649.016113,786.715393 &#xA;&#x9;C650.928284,782.158020 650.928284,782.158020 658.188477,785.694214 &#xA;z"></path>
<path fill="#A8E0D6" opacity="1.000000" stroke="none" d="&#xA;M472.982056,917.470459 &#xA;&#x9;C473.002472,926.378784 472.108612,927.504028 463.260986,929.227417 &#xA;&#x9;C462.154602,929.442932 460.841431,928.596619 459.624084,928.242310 &#xA;&#x9;C459.716766,927.710144 459.809448,927.178040 459.902130,926.645874 &#xA;&#x9;C461.019531,926.208008 462.141022,925.388611 463.253632,925.400513 &#xA;&#x9;C467.343048,925.444214 468.641998,922.750000 469.949768,919.581787 &#xA;&#x9;C470.353668,918.603394 469.674408,915.036194 472.982056,917.470459 &#xA;z"></path>
<path fill="#A8E0D6" opacity="1.000000" stroke="none" d="&#xA;M646.825562,791.393311 &#xA;&#x9;C650.660583,793.863098 654.341248,795.929871 657.703613,798.425476 &#xA;&#x9;C658.718872,799.178955 658.851379,801.121826 659.388245,802.519897 &#xA;&#x9;C658.966003,802.757690 658.543762,802.995544 658.121460,803.233337 &#xA;&#x9;C653.465759,800.353394 648.810059,797.473450 644.154358,794.593506 &#xA;&#x9;C643.514099,793.939697 642.873779,793.285828 642.233521,792.632019 &#xA;&#x9;C643.672058,792.139587 645.110535,791.647217 646.825562,791.393311 &#xA;z"></path>
<path fill="#2FBFB0" opacity="1.000000" stroke="none" d="&#xA;M307.802856,500.530273 &#xA;&#x9;C307.837860,502.427338 307.732300,503.967163 307.601715,505.872009 &#xA;&#x9;C301.076294,501.815002 297.517517,495.438171 300.012878,491.270081 &#xA;&#x9;C302.688599,494.384247 305.175446,497.278625 307.802856,500.530273 &#xA;z"></path>
<path fill="#A8E0D6" opacity="1.000000" stroke="none" d="&#xA;M290.720245,884.645325 &#xA;&#x9;C289.319092,886.633545 288.381012,890.668762 285.260193,888.369507 &#xA;&#x9;C282.865417,886.604980 276.907715,886.861389 279.044128,881.069031 &#xA;&#x9;C279.974426,878.546753 281.495697,878.345032 283.577606,880.068542 &#xA;&#x9;C285.324615,881.514771 287.298492,882.687012 289.743896,884.135193 &#xA;&#x9;C290.450684,884.408325 290.585449,884.526855 290.720245,884.645325 &#xA;z"></path>
<path fill="#A8E0D6" opacity="1.000000" stroke="none" d="&#xA;M483.358765,923.200073 &#xA;&#x9;C482.953278,924.648926 482.831909,925.766541 482.688660,927.085938 &#xA;&#x9;C477.194702,925.638916 478.460388,920.911377 478.298950,917.619080 &#xA;&#x9;C478.220490,916.018311 481.297363,914.262878 482.945862,912.577515 &#xA;&#x9;C483.339233,912.894836 483.732605,913.212097 484.125977,913.529419 &#xA;&#x9;C483.964935,916.642517 483.803925,919.755615 483.358765,923.200073 &#xA;z"></path>
<path fill="#A8E0D6" opacity="1.000000" stroke="none" d="&#xA;M606.719849,861.224487 &#xA;&#x9;C605.626465,860.467651 604.606262,860.129395 604.006714,859.430481 &#xA;&#x9;C601.908508,856.984497 599.955444,854.413940 597.886414,851.814331 &#xA;&#x9;C603.963318,850.302246 607.398743,853.392517 611.230530,864.186951 &#xA;&#x9;C609.389526,863.011902 608.187744,862.244812 606.719849,861.224487 &#xA;z"></path>
<path fill="#A8E0D6" opacity="1.000000" stroke="none" d="&#xA;M631.226196,835.730225 &#xA;&#x9;C627.559998,833.140381 624.152954,830.811462 620.663086,828.425964 &#xA;&#x9;C625.065552,824.171570 630.945251,828.123413 634.430054,838.102417 &#xA;&#x9;C633.448486,837.398682 632.466858,836.694946 631.226196,835.730225 &#xA;z"></path>
<path fill="#A8E0D6" opacity="1.000000" stroke="none" d="&#xA;M543.792847,890.712952 &#xA;&#x9;C542.151184,891.957825 540.762878,892.940735 539.307251,893.971252 &#xA;&#x9;C537.037964,888.779907 537.037964,888.779907 551.358032,883.177490 &#xA;&#x9;C551.645691,883.561707 551.933350,883.945923 552.221069,884.330139 &#xA;&#x9;C549.496094,886.370422 546.771118,888.410645 543.792847,890.712952 &#xA;z"></path>
<path fill="#A8E0D6" opacity="1.000000" stroke="none" d="&#xA;M380.972992,911.934814 &#xA;&#x9;C378.919952,916.628845 376.893250,920.929199 374.792328,925.387024 &#xA;&#x9;C371.418060,922.540771 376.188538,911.314941 381.988617,907.737915 &#xA;&#x9;C381.575653,909.325500 381.287506,910.433289 380.972992,911.934814 &#xA;z"></path>
<path fill="#A8E0D6" opacity="1.000000" stroke="none" d="&#xA;M428.986145,920.301208 &#xA;&#x9;C427.745514,917.967224 426.523621,916.031128 425.245117,914.005371 &#xA;&#x9;C425.834900,913.881287 428.048309,912.761169 429.752777,913.287903 &#xA;&#x9;C430.880646,913.636536 431.521667,916.287659 431.946594,918.014832 &#xA;&#x9;C432.599457,920.668701 432.879303,923.414429 433.317444,926.121155 &#xA;&#x9;C432.773071,926.338257 432.228729,926.555359 431.684357,926.772461 &#xA;&#x9;C430.791199,924.748047 429.898010,922.723572 428.986145,920.301208 &#xA;z"></path>
<path fill="#A8E0D6" opacity="1.000000" stroke="none" d="&#xA;M563.800537,876.099304 &#xA;&#x9;C568.940613,879.484497 571.237305,883.857239 569.639404,889.721375 &#xA;&#x9;C569.143677,889.917847 568.647949,890.114380 568.152222,890.310852 &#xA;&#x9;C566.573730,885.588928 564.995178,880.866943 563.800537,876.099304 &#xA;z"></path>
<path fill="#A8E0D6" opacity="1.000000" stroke="none" d="&#xA;M239.747375,843.643677 &#xA;&#x9;C237.670074,845.718811 235.802536,847.477356 233.768402,849.392883 &#xA;&#x9;C231.193604,844.028687 234.511887,840.134033 242.141708,839.190552 &#xA;&#x9;C241.316299,840.753479 240.636719,842.040344 239.747375,843.643677 &#xA;z"></path>
<path fill="#A8E0D6" opacity="1.000000" stroke="none" d="&#xA;M290.119080,884.106201 &#xA;&#x9;C290.811157,880.951721 291.700073,877.980896 292.725098,874.555176 &#xA;&#x9;C299.395447,879.840149 292.929565,881.462524 290.968323,884.426636 &#xA;&#x9;C290.585449,884.526855 290.450684,884.408325 290.119080,884.106201 &#xA;z"></path>
<path fill="#A8E0D6" opacity="1.000000" stroke="none" d="&#xA;M270.449890,877.789551 &#xA;&#x9;C268.822083,876.729919 267.541260,875.839844 265.681244,874.547241 &#xA;&#x9;C269.537445,874.547241 272.548431,874.547241 275.559387,874.547241 &#xA;&#x9;C275.683594,875.050842 275.807800,875.554382 275.932007,876.057983 &#xA;&#x9;C274.220276,876.691650 272.508545,877.325378 270.449890,877.789551 &#xA;z"></path>
<path fill="#A8E0D6" opacity="1.000000" stroke="none" d="&#xA;M268.998871,860.124084 &#xA;&#x9;C269.697693,859.348022 270.897583,858.535889 271.008545,858.664307 &#xA;&#x9;C272.158600,859.995667 273.133240,861.478760 274.468475,863.358887 &#xA;&#x9;C272.314972,864.046814 270.565552,864.605713 267.843872,865.475159 &#xA;&#x9;C268.337585,863.350830 268.666016,861.937744 268.998871,860.124084 &#xA;z"></path>
<path fill="#A8E0D6" opacity="1.000000" stroke="none" d="&#xA;M259.077179,859.077759 &#xA;&#x9;C259.077179,862.161377 259.077179,865.244934 259.077179,868.319824 &#xA;&#x9;C251.825806,866.054749 256.059845,862.236694 258.275146,858.711548 &#xA;&#x9;C258.839386,858.808960 258.958282,858.943359 259.077179,859.077759 &#xA;z"></path>
<path fill="#A8E0D6" opacity="1.000000" stroke="none" d="&#xA;M258.548431,858.467590 &#xA;&#x9;C259.961945,855.851624 261.547577,853.442627 263.742584,850.107727 &#xA;&#x9;C265.412415,855.317688 262.601410,857.161133 259.431152,859.039917 &#xA;&#x9;C258.958282,858.943359 258.839386,858.808960 258.548431,858.467590 &#xA;z"></path>
<path fill="#A8E0D6" opacity="1.000000" stroke="none" d="&#xA;M249.777557,855.670776 &#xA;&#x9;C248.783340,856.170349 248.063538,856.408264 245.763855,857.168213 &#xA;&#x9;C247.983322,853.795959 249.489014,851.508240 250.994720,849.220459 &#xA;&#x9;C251.487259,849.491516 251.979797,849.762512 252.472351,850.033569 &#xA;&#x9;C251.665543,851.825378 250.858749,853.617249 249.777557,855.670776 &#xA;z"></path>
<path fill="#A8E0D6" opacity="1.000000" stroke="none" d="&#xA;M254.113113,844.638428 &#xA;&#x9;C255.524841,844.474060 256.815674,844.687866 258.106476,844.901672 &#xA;&#x9;C258.140717,845.465576 258.174957,846.029480 258.209198,846.593384 &#xA;&#x9;C256.605438,847.313721 255.001694,848.034058 252.527664,849.145325 &#xA;&#x9;C253.210754,847.219604 253.601471,846.118103 254.113113,844.638428 &#xA;z"></path>
<path fill="#4A8C88" opacity="1.000000" stroke="none" d="&#xA;M222.501068,877.464600 &#xA;&#x9;C222.047150,877.177063 221.795746,876.719543 221.544342,876.262024 &#xA;&#x9;C221.970337,876.311584 222.396317,876.361145 222.946716,876.662476 &#xA;&#x9;C222.948608,877.041077 222.826111,877.167786 222.501068,877.464600 &#xA;z"></path>
<path fill="#4A8C88" opacity="1.000000" stroke="none" d="&#xA;M279.108154,788.890747 &#xA;&#x9;C278.686584,788.582336 278.457031,788.093018 278.227478,787.603699 &#xA;&#x9;C278.583527,787.703735 278.939575,787.803772 279.470032,788.106750 &#xA;&#x9;C279.529724,788.442993 279.414978,788.576355 279.108154,788.890747 &#xA;z"></path>
<path fill="#4A8C88" opacity="1.000000" stroke="none" d="&#xA;M371.499268,867.535583 &#xA;&#x9;C371.953400,867.823303 372.204834,868.281006 372.456268,868.738647 &#xA;&#x9;C372.030060,868.689026 371.603851,868.639343 371.053284,868.337646 &#xA;&#x9;C371.051453,867.958984 371.174011,867.832275 371.499268,867.535583 &#xA;z"></path>
<path fill="#4A8C88" opacity="1.000000" stroke="none" d="&#xA;M273.891357,781.109375 &#xA;&#x9;C274.312653,781.419739 274.542053,781.910583 274.771484,782.401428 &#xA;&#x9;C274.415985,782.299500 274.060516,782.197632 273.530273,781.892395 &#xA;&#x9;C273.470215,781.556030 273.584839,781.422974 273.891357,781.109375 &#xA;z"></path>
<path fill="#4A8C88" opacity="1.000000" stroke="none" d="&#xA;M209.892471,864.109253 &#xA;&#x9;C210.314331,864.419373 210.544052,864.910950 210.773773,865.402588 &#xA;&#x9;C210.417862,865.301392 210.061951,865.200134 209.531006,864.895447 &#xA;&#x9;C209.470749,864.558228 209.585556,864.424561 209.892471,864.109253 &#xA;z"></path>
<path fill="#0D7171" opacity="1.000000" stroke="none" d="&#xA;M328.399292,1003.364624 &#xA;&#x9;C324.640533,1005.958618 320.369781,1005.281921 317.412537,1000.887085 &#xA;&#x9;C316.465485,999.479431 317.377075,995.972290 318.564056,994.165283 &#xA;&#x9;C320.639343,991.006042 324.011200,991.230835 326.809601,993.381775 &#xA;&#x9;C330.146393,995.946533 331.808838,999.160645 328.399292,1003.364624 &#xA;z"></path>
<path fill="#0D7171" opacity="1.000000" stroke="none" d="&#xA;M347.151672,994.824341 &#xA;&#x9;C350.002960,999.219971 348.107239,1002.952942 344.660614,1004.191467 &#xA;&#x9;C342.288452,1005.043945 338.283417,1003.382935 335.897644,1001.632874 &#xA;&#x9;C333.156616,999.622131 334.873322,996.781311 336.959595,994.818054 &#xA;&#x9;C340.141144,991.824097 343.499115,990.808533 347.151672,994.824341 &#xA;z"></path>
<path fill="#0D7171" opacity="1.000000" stroke="none" d="&#xA;M365.295837,996.014343 &#xA;&#x9;C366.707092,1000.318542 365.710388,1002.903748 361.439880,1004.347839 &#xA;&#x9;C357.746094,1005.596985 355.269440,1004.662292 353.628937,1001.408936 &#xA;&#x9;C351.916962,998.013916 353.951294,995.826050 356.475037,993.914185 &#xA;&#x9;C359.233246,991.824585 361.844910,991.479187 364.211090,994.494690 &#xA;&#x9;C364.516388,994.883850 364.810608,995.281738 365.295837,996.014343 &#xA;z"></path>
<path fill="#0D7171" opacity="1.000000" stroke="none" d="&#xA;M405.663757,999.188416 &#xA;&#x9;C404.234406,1000.806763 402.818359,1002.834717 401.141418,1003.080078 &#xA;&#x9;C399.956421,1003.253540 397.482819,1001.143372 397.295532,999.811951 &#xA;&#x9;C397.101135,998.429871 398.966858,996.758118 399.931641,995.213074 &#xA;&#x9;C401.809631,996.420776 403.687561,997.628418 405.663757,999.188416 &#xA;z"></path>
</svg>
