<svg version="1.1" id="Layer_1" xmlns="http://www.w3.org/2000/svg" xmlns:xlink="http://www.w3.org/1999/xlink" x="0px" y="0px"
	 width="100%" viewBox="0 0 2200 1387" enable-background="new 0 0 2200 1387" xml:space="preserve">
<path fill="#0D6F6F" opacity="1.000000" stroke="none" 
	d="
M817.974365,710.000000 
	C817.974365,665.697876 817.974365,621.895813 817.974365,577.988281 
	C828.616882,577.988281 839.044373,577.722412 849.436401,578.210815 
	C851.535217,578.309448 853.829834,580.986206 855.474304,582.944519 
	C869.270874,599.374939 882.953369,615.901306 896.637085,632.426270 
	C908.832458,647.153992 920.992371,661.911255 933.149353,676.670837 
	C934.656006,678.499878 936.048218,680.423218 938.616089,681.963135 
	C938.616089,647.654480 938.616089,613.345764 938.616089,578.527344 
	C952.528931,578.527344 965.757202,578.527344 979.380615,578.527344 
	C979.380615,636.507507 979.380615,694.541504 979.380615,753.902161 
	C970.338074,753.902161 961.846191,754.560913 953.533386,753.626526 
	C949.324890,753.153564 944.269043,750.785339 941.593384,747.597656 
	C919.691040,721.504517 898.263184,695.013245 876.682495,668.650024 
	C871.113892,661.847351 865.514343,655.070007 859.928955,648.281067 
	C859.421814,648.307983 858.914612,648.334839 858.407410,648.361755 
	C857.831543,683.279968 857.255676,718.198181 856.677856,753.232483 
	C843.829468,753.232483 831.028503,753.232483 817.974426,753.232483 
	C817.974426,738.460388 817.974426,724.480164 817.974365,710.000000 
z"/>
<path fill="#0C6F6F" opacity="1.000000" stroke="none" 
	d="
M1018.359131,625.378662 
	C1030.956909,597.563538 1052.959717,582.801392 1081.846680,576.817871 
	C1101.787231,572.687378 1121.477173,572.730713 1140.647095,579.956360 
	C1172.194092,591.847534 1192.533691,613.852661 1198.890137,647.440002 
	C1203.476929,671.676636 1199.824951,694.741089 1185.958008,715.474060 
	C1171.585815,736.962341 1151.154785,749.872375 1125.904785,754.645020 
	C1101.206177,759.313477 1077.138184,756.871094 1054.870483,744.530701 
	C1030.344971,730.939270 1015.532898,709.797058 1010.132263,682.445251 
	C1006.248840,662.777344 1010.125793,643.861389 1018.359131,625.378662 
M1123.220947,612.072205 
	C1095.618774,603.109131 1062.249390,614.924805 1053.044434,646.042908 
	C1043.617798,677.910400 1054.556519,707.153503 1085.493042,718.797363 
	C1114.079712,729.556519 1146.081543,714.874756 1156.061646,687.704834 
	C1167.842896,655.631348 1154.247681,623.673096 1123.220947,612.072205 
z"/>
<path fill="#0E7170" opacity="1.000000" stroke="none" 
	d="
M515.042603,680.002075 
	C512.404846,680.002319 510.263306,680.002319 507.712036,680.002319 
	C507.712036,693.594421 507.712036,706.810364 507.712036,720.624207 
	C539.215942,720.624207 570.760803,720.624207 602.612305,720.624207 
	C602.612305,731.618835 602.612305,742.025085 602.612305,753.126953 
	C557.842041,753.126953 513.100281,753.126953 467.677216,753.126953 
	C467.677216,695.107727 467.677216,636.603394 467.677216,577.652466 
	C511.069275,577.652466 554.640137,577.652466 599.119202,577.652466 
	C599.119202,584.860901 599.063538,591.445862 599.131042,598.029602 
	C599.261292,610.727234 599.292175,610.531677 586.626526,610.401550 
	C561.464294,610.143005 536.299561,610.117188 511.135773,610.019958 
	C510.013062,610.015625 508.889465,610.255249 507.785919,610.379028 
	C507.785919,622.763062 507.785919,634.882080 507.785919,647.572083 
	C535.072998,647.572083 561.967163,647.572083 589.238770,647.572083 
	C589.238770,658.214783 589.238770,668.293640 589.238770,679.567810 
	C564.697388,679.712341 540.118164,679.857117 515.042603,680.002075 
z"/>
<path fill="#4DD0BE" opacity="1.000000" stroke="none" 
	d="
M1990.964478,642.008911 
	C1990.964478,636.917786 1990.964478,632.324585 1990.964478,627.731445 
	C1990.626221,627.595886 1990.287964,627.460266 1989.949707,627.324646 
	C1988.043701,630.125061 1985.955566,632.819763 1984.260010,635.742188 
	C1966.497314,666.356018 1948.725464,696.965271 1931.159058,727.691711 
	C1928.593262,732.179565 1924.729248,731.871094 1920.829956,731.899841 
	C1917.070435,731.927551 1913.752075,730.938232 1911.625122,727.189758 
	C1895.138062,698.133789 1878.587646,669.113464 1861.950073,640.143433 
	C1859.773315,636.353210 1856.990845,632.910950 1854.488892,629.307434 
	C1853.989990,629.448853 1853.491089,629.590210 1852.992188,629.731628 
	C1852.992188,671.036438 1852.992188,712.341309 1852.992188,754.607727 
	C1844.827026,753.555969 1837.590210,752.834595 1830.473755,751.480896 
	C1829.400757,751.276733 1828.239502,748.130615 1828.217773,746.332153 
	C1828.000977,728.502502 1827.960693,710.670044 1827.977173,692.838440 
	C1828.007812,659.508057 1828.110352,626.177673 1828.179443,592.847290 
	C1828.189941,587.729919 1828.181152,582.612488 1828.181152,577.071594 
	C1834.292358,577.071594 1840.374512,576.755432 1846.387939,577.259033 
	C1848.258301,577.415649 1850.552368,579.429077 1851.616089,581.211060 
	C1860.534546,596.151611 1869.195679,611.245483 1877.964722,626.275452 
	C1891.445923,649.381470 1904.947266,672.475769 1918.455322,695.566101 
	C1919.287842,696.989014 1920.254395,698.333435 1921.726929,700.582397 
	C1926.459229,692.718445 1930.918213,685.433350 1935.256714,678.077271 
	C1953.069824,647.874084 1970.760986,617.598389 1988.689453,587.463928 
	C1993.940186,578.638672 2000.197266,576.305786 2010.185913,577.830994 
	C2013.859375,578.391907 2015.443115,580.355469 2015.803345,583.677429 
	C2016.018066,585.657593 2015.967773,587.670959 2015.966553,589.669434 
	C2015.935425,642.829651 2015.856445,695.989868 2015.936035,749.149902 
	C2015.941895,753.025818 2014.778442,754.086548 2011.037231,753.713562 
	C2007.435181,753.354553 2003.760132,753.661682 2000.119751,753.765381 
	C1992.545532,753.980896 1990.939087,752.509705 1990.938232,745.000427 
	C1990.934326,710.835938 1990.953613,676.671387 1990.964478,642.008911 
z"/>
<path fill="#0C6F6F" opacity="1.000000" stroke="none" 
	d="
M778.700195,594.265259 
	C782.676025,598.063293 786.394043,601.611389 790.421387,605.454712 
	C781.620789,613.663818 773.133301,621.580933 764.299927,629.820618 
	C750.655090,614.230774 733.527771,607.124634 713.139771,609.209106 
	C698.911865,610.663757 687.066833,617.307068 677.415039,627.979858 
	C660.857849,646.288574 660.410645,682.392700 677.977661,703.883789 
	C694.641907,724.270386 739.782898,731.228271 764.731689,701.525757 
	C772.020142,708.077332 779.340393,714.584045 786.567322,721.192932 
	C789.132690,723.538940 788.644287,727.958435 785.841553,730.766357 
	C771.474731,745.159973 753.832825,752.932251 733.996887,755.827820 
	C713.490479,758.821289 693.583313,756.325867 674.773193,747.339661 
	C646.896118,734.021851 630.020569,711.890930 625.208557,681.535828 
	C620.152527,649.641235 629.397400,621.808472 652.503906,598.944275 
	C666.350525,585.242859 683.692322,578.158386 702.445007,575.211365 
	C723.877808,571.843140 744.809753,574.902161 764.358459,584.780701 
	C769.337280,587.296631 773.762634,590.907593 778.700195,594.265259 
z"/>
<path fill="#4ED0BF" opacity="1.000000" stroke="none" 
	d="
M1549.817383,610.322266 
	C1557.713623,626.787598 1557.662720,643.287170 1552.751099,660.180786 
	C1547.550049,678.069885 1533.399292,686.790833 1517.839844,694.511292 
	C1531.375610,714.095337 1544.684448,733.351074 1558.663452,753.576294 
	C1551.690186,753.576294 1545.631470,753.284729 1539.612793,753.651245 
	C1532.338013,754.094238 1528.373413,750.447205 1524.620850,744.606873 
	C1516.086670,731.324158 1506.756226,718.554016 1497.784790,705.551025 
	C1495.133911,701.708923 1491.806030,699.786865 1486.894287,699.869019 
	C1473.567505,700.092163 1460.233521,699.851746 1446.902954,699.900574 
	C1440.366577,699.924500 1439.024292,701.338501 1439.012573,707.821167 
	C1438.985718,722.632996 1439.004028,737.444946 1439.004028,752.645813 
	C1430.454224,752.645813 1422.213623,752.645813 1413.465088,752.645813 
	C1413.465088,694.711182 1413.465088,636.675781 1413.465088,578.317932 
	C1414.524170,578.204773 1415.636475,577.982910 1416.749146,577.982239 
	C1438.246094,577.968323 1459.751465,577.616272 1481.236816,578.118042 
	C1494.990601,578.439331 1508.806030,579.392578 1521.835815,584.760071 
	C1534.162720,589.838013 1543.533936,598.096558 1549.817383,610.322266 
M1504.246826,602.994934 
	C1484.690186,602.067505 1465.136841,601.050171 1445.573608,600.293945 
	C1441.968872,600.154602 1439.859497,602.367737 1439.818115,606.328247 
	C1439.592163,627.945984 1439.249756,649.562500 1439.026489,671.180298 
	C1438.975098,676.164795 1440.906128,677.986084 1445.989502,677.980530 
	C1457.636841,677.967834 1469.296753,678.180176 1480.926880,677.700684 
	C1488.173096,677.401855 1495.518188,676.625244 1502.566406,674.980774 
	C1519.155518,671.110107 1530.845337,657.536865 1530.600464,641.337341 
	C1530.365601,625.793518 1526.087891,609.327881 1504.246826,602.994934 
z"/>
<path fill="#41CBBB" opacity="1.000000" stroke="none" 
	d="
M1371.386230,666.328125 
	C1361.530396,685.339966 1345.523438,695.458008 1325.280396,697.718384 
	C1307.803223,699.669983 1290.079224,699.507385 1272.456787,700.022827 
	C1262.424438,700.316284 1261.162231,701.746216 1261.449951,711.771912 
	C1261.788940,723.581970 1261.500122,735.409302 1261.544800,747.228882 
	C1261.562256,751.849060 1259.420288,753.818726 1254.784302,753.610352 
	C1250.967041,753.438843 1247.129272,753.702515 1243.301270,753.799988 
	C1237.588135,753.945496 1235.545654,752.222900 1235.346924,746.179199 
	C1235.106201,738.857422 1235.256104,731.522217 1235.265991,724.192810 
	C1235.318970,684.881653 1235.383667,645.570496 1235.437866,606.259338 
	C1235.451050,596.775757 1235.439697,587.292175 1235.439697,577.852844 
	C1236.696777,577.413086 1237.297241,577.010071 1237.887329,577.024414 
	C1264.672485,577.674438 1291.475830,577.959473 1318.232178,579.230164 
	C1329.817627,579.780273 1341.265015,582.633179 1351.389160,588.897888 
	C1366.360352,598.161865 1374.439697,611.928589 1376.994507,629.132874 
	C1378.898926,641.957520 1377.056641,654.252747 1371.386230,666.328125 
M1261.683594,645.483582 
	C1261.683594,646.650208 1261.684570,647.816772 1261.683350,648.983398 
	C1261.675903,656.792969 1261.640747,664.602661 1261.673706,672.412048 
	C1261.687256,675.624939 1263.425415,677.357117 1266.617188,677.420959 
	C1269.925415,677.487061 1273.242920,677.503235 1276.546021,677.335754 
	C1291.117554,676.597107 1305.770142,676.505066 1320.232544,674.808716 
	C1336.818237,672.863159 1348.658813,664.286316 1351.410400,644.153687 
	C1354.499390,621.552429 1340.709595,603.402832 1317.822388,602.005615 
	C1301.721313,601.022583 1285.577637,600.703430 1269.448608,600.231995 
	C1263.691040,600.063660 1261.923340,601.776184 1261.845825,607.557739 
	C1261.680542,619.866516 1261.724731,632.178101 1261.683594,645.483582 
z"/>
<path fill="#0D706F" opacity="1.000000" stroke="none" 
	d="
M381.853027,753.507690 
	C372.385284,753.651978 363.389252,753.655396 354.412567,754.074158 
	C350.218109,754.269714 348.949188,752.832642 348.963837,748.680908 
	C349.101349,709.704285 349.064270,670.727051 349.076782,631.750000 
	C349.078918,625.112366 349.077087,618.474670 349.077087,610.994751 
	C330.381958,610.994751 312.020264,610.994751 293.315338,610.994751 
	C293.315338,599.658142 293.315338,589.105591 293.315338,577.760132 
	C343.639954,577.760132 393.997437,577.760132 445.193939,577.760132 
	C445.193939,588.254761 445.193939,599.111206 445.193939,610.403931 
	C426.906799,610.403931 408.305817,610.403931 388.956818,610.403931 
	C388.956818,612.409546 388.956085,613.995911 388.956879,615.582275 
	C388.979187,659.721619 389.002594,703.861023 389.023102,748.000366 
	C389.025970,754.144043 388.816833,754.311768 381.853027,753.507690 
z"/>
<path fill="#4DD0BE" opacity="1.000000" stroke="none" 
	d="
M662.831970,908.856323 
	C669.581055,916.597107 676.340942,924.328552 683.070984,932.085815 
	C684.583435,933.829163 685.991760,935.662842 688.012268,938.149109 
	C680.244080,944.628479 672.815796,951.230469 664.969421,957.291199 
	C643.096008,974.186951 620.172241,989.667786 595.451233,1001.959839 
	C578.592773,1010.342346 560.547913,1016.334351 543.059692,1023.459534 
	C540.470337,1024.514526 539.535583,1023.530212 538.791138,1021.132324 
	C532.936646,1002.275635 526.933777,983.465027 521.088623,964.605408 
	C519.097595,958.181152 519.980469,957.064270 526.490051,954.268311 
	C540.048279,948.444702 554.077148,943.410278 566.883484,936.218933 
	C583.494690,926.891052 599.100159,915.772949 615.147095,905.438660 
	C617.088623,904.188171 619.082642,903.019226 621.752502,901.914062 
	C629.259705,909.769287 636.066711,917.522766 642.744507,925.129150 
	C649.317688,919.804260 656.074829,914.330261 662.831970,908.856323 
z"/>
<path fill="#31C0B1" opacity="1.000000" stroke="none" 
	d="
M1502.125366,916.043701 
	C1502.135376,880.999207 1502.135376,846.361572 1502.135376,811.323486 
	C1509.878296,811.323486 1517.571655,811.323486 1525.653687,811.323486 
	C1525.653687,860.331543 1525.653687,909.231323 1525.653687,958.397217 
	C1518.784058,958.397217 1511.750488,959.249329 1505.087402,958.047791 
	C1501.610107,957.420898 1498.189819,953.639832 1495.756836,950.498657 
	C1471.214111,918.810791 1446.883057,886.959106 1422.481689,855.161682 
	C1421.726562,854.177795 1420.855103,853.283203 1419.218994,851.408997 
	C1419.218994,887.758789 1419.218994,922.929810 1419.218994,958.564331 
	C1411.089966,958.564331 1403.490234,958.564331 1395.033813,958.564331 
	C1395.033813,954.600525 1395.033813,950.349060 1395.033813,946.097595 
	C1395.033691,904.284363 1395.026245,862.471130 1395.039429,820.657898 
	C1395.042358,811.144287 1398.775757,808.418091 1408.256348,810.390503 
	C1416.536987,812.113220 1422.471436,816.722839 1427.551514,823.372253 
	C1450.363647,853.230957 1473.425659,882.898926 1496.426758,912.612915 
	C1497.639404,914.179443 1499.081543,915.580261 1500.527588,916.940430 
	C1500.726929,917.127930 1501.570190,916.630737 1502.125366,916.043701 
z"/>
<path fill="#4ED0BF" opacity="1.000000" stroke="none" 
	d="
M1742.058838,754.147156 
	C1713.356079,757.646912 1686.750000,753.359985 1662.506714,737.538757 
	C1658.971069,735.231445 1658.286865,732.914490 1660.181885,729.277954 
	C1662.330200,725.154846 1664.164185,720.868530 1666.172607,716.671143 
	C1666.448853,716.093689 1666.941650,715.619873 1667.281006,715.168823 
	C1675.685181,719.400696 1683.705811,724.149048 1692.251343,727.596130 
	C1710.559448,734.981262 1729.399658,735.662415 1748.358643,729.974792 
	C1760.233765,726.412292 1766.429810,718.530579 1766.792725,706.870728 
	C1767.098145,697.051636 1760.164673,687.437134 1749.203003,683.957275 
	C1734.541016,679.302795 1719.620483,675.468018 1704.912964,670.949585 
	C1697.475586,668.664734 1689.864136,666.408264 1683.026978,662.815430 
	C1666.604614,654.185730 1661.278931,638.402466 1662.495850,621.258850 
	C1663.868774,601.917419 1674.827881,590.183594 1692.358521,583.430969 
	C1720.926636,572.426758 1748.972290,572.253052 1776.534180,586.646729 
	C1783.774170,590.427673 1784.668457,592.558899 1781.871216,599.989807 
	C1780.490479,603.657654 1779.253052,607.379395 1778.154541,610.498169 
	C1767.614136,606.762207 1757.664917,602.584106 1747.349121,599.731567 
	C1731.692505,595.402100 1716.165527,596.135925 1701.204834,603.340576 
	C1691.988037,607.779053 1687.314941,615.168701 1687.196167,625.057495 
	C1687.084961,634.336853 1692.156494,641.024841 1700.697876,644.122864 
	C1714.552734,649.148010 1728.688843,653.393494 1742.670654,658.074585 
	C1752.106445,661.233582 1761.795044,663.886475 1770.809937,667.995789 
	C1784.597412,674.280457 1790.987793,685.936157 1792.093018,700.908081 
	C1794.243286,730.034485 1776.302368,744.893799 1752.698120,751.940491 
	C1749.379150,752.931335 1745.900269,753.386414 1742.058838,754.147156 
z"/>
<path fill="#33C0B1" opacity="1.000000" stroke="none" 
	d="
M1352.648193,827.249512 
	C1351.587158,831.547668 1348.705444,832.091003 1345.250854,832.085510 
	C1324.426025,832.052612 1303.600952,832.083618 1282.776245,832.159180 
	C1274.311523,832.189941 1273.042847,833.546448 1273.041260,841.986328 
	C1273.039307,851.784485 1273.040771,861.582642 1273.040771,872.163025 
	C1280.941895,872.163025 1288.542603,872.149414 1296.143188,872.165955 
	C1310.803101,872.197815 1325.463623,872.331177 1340.122437,872.225647 
	C1343.513550,872.201233 1344.940308,873.101379 1344.777954,876.716858 
	C1344.524902,882.352539 1344.711060,888.007935 1344.711060,894.267822 
	C1321.085449,894.267822 1297.413330,894.267822 1273.323486,894.267822 
	C1273.195435,895.653320 1272.989868,896.902283 1272.978882,898.152954 
	C1272.891113,908.147034 1272.861328,918.141602 1272.771240,928.135681 
	C1272.699707,936.061768 1273.841064,937.454773 1281.932495,937.451538 
	C1304.085693,937.442688 1326.240845,937.371826 1348.390747,937.033020 
	C1353.192139,936.959534 1355.182129,938.468079 1354.908447,943.266968 
	C1354.700195,946.918762 1354.700684,950.601746 1354.916138,954.252747 
	C1355.114258,957.611877 1353.500610,958.752563 1350.482422,958.704224 
	C1349.816162,958.693542 1349.149536,958.708862 1348.483154,958.708862 
	C1317.994629,958.709229 1287.506226,958.716003 1257.017700,958.703979 
	C1250.073853,958.701294 1248.920532,957.532898 1248.921631,950.582397 
	C1248.929077,906.099304 1249.018921,861.616028 1248.853027,817.133545 
	C1248.835083,812.315247 1250.181885,810.994324 1254.975708,811.026855 
	C1285.629272,811.234863 1316.285156,811.132935 1346.940186,811.132935 
	C1348.584595,811.132935 1350.229004,811.132874 1352.693481,811.132874 
	C1352.693481,816.584045 1352.693481,821.702393 1352.648193,827.249512 
z"/>
<path fill="#4DD0BE" opacity="1.000000" stroke="none" 
	d="
M311.797913,1026.171509 
	C305.213318,1024.188110 298.967133,1022.454224 292.857819,1020.327087 
	C287.768799,1018.555298 286.762939,1016.420776 288.662933,1011.570312 
	C295.920349,993.043518 303.321198,974.572937 310.646179,956.072571 
	C312.171204,952.220886 314.544769,951.340332 318.535492,952.795593 
	C337.126404,959.574829 356.128723,964.961426 375.796539,967.429382 
	C388.481018,969.020996 401.259216,969.912109 414.013062,970.885925 
	C420.379761,971.372131 422.842590,973.418518 422.979401,979.635376 
	C423.371338,997.446106 423.727722,1015.257874 424.010223,1033.070679 
	C424.117798,1039.852051 422.902100,1040.871704 416.358948,1041.053223 
	C380.791260,1042.040039 346.252106,1035.859741 311.797913,1026.171509 
M326.316711,992.929688 
	C321.078796,991.262451 318.764038,992.219482 316.811157,996.687561 
	C314.447327,1002.096008 319.659058,1002.424622 322.097595,1004.415405 
	C325.423431,1007.130554 327.670044,1004.579529 329.255768,1002.014587 
	C331.400360,998.545410 329.645203,995.756042 326.316711,992.929688 
M343.132507,992.199158 
	C341.179443,992.938354 338.906158,993.269470 337.338379,994.499634 
	C333.821625,997.259338 334.003937,1000.817688 337.375397,1003.125793 
	C341.542542,1005.978699 344.967285,1005.598206 347.274567,1002.026184 
	C349.758026,998.181396 348.791199,995.476685 343.132507,992.199158 
M365.987823,999.391724 
	C364.324768,997.022156 362.776825,992.843872 360.970276,992.728821 
	C358.568848,992.575989 355.456024,995.186218 353.680450,997.426880 
	C352.881470,998.435059 354.020630,1001.869629 355.260712,1003.418152 
	C357.858459,1006.662292 363.433929,1004.810791 365.987823,999.391724 
M401.579163,1003.572510 
	C404.520721,1003.262878 406.518982,1001.738037 405.236298,998.779724 
	C404.542786,997.180237 402.381348,995.693909 400.624390,995.296570 
	C399.728119,995.093811 397.665833,997.202942 397.178925,998.625793 
	C396.161835,1001.598083 398.556885,1002.589600 401.579163,1003.572510 
z"/>
<path fill="#30BFB1" opacity="1.000000" stroke="none" 
	d="
M984.989746,834.970703 
	C988.068726,828.690796 990.522522,822.431030 994.156616,816.954407 
	C998.954163,809.724487 1011.830505,807.642883 1018.983521,812.402405 
	C1020.550598,813.445007 1021.932617,815.217407 1022.688110,816.961975 
	C1042.801392,863.405518 1062.822144,909.889221 1082.842529,956.372925 
	C1082.961304,956.648621 1082.857178,957.020264 1082.857178,958.182251 
	C1074.567627,958.182251 1066.217041,958.182251 1057.210815,958.182251 
	C1053.966187,949.886536 1050.335327,940.862183 1046.917358,931.757874 
	C1045.130127,926.997009 1042.351685,924.791870 1036.885254,924.835022 
	C1019.407349,924.973389 1001.924622,924.591370 984.444702,924.342773 
	C973.595703,924.188477 967.696777,928.799133 964.894836,939.642883 
	C964.152527,942.515564 963.279968,945.391663 962.101929,948.107727 
	C958.325806,956.814453 951.139893,960.964722 941.754150,959.988708 
	C938.306885,959.630249 934.879517,959.080078 930.870667,958.540283 
	C948.894165,917.434265 966.891968,876.386841 984.989746,834.970703 
M997.189941,863.706848 
	C991.767700,876.642639 986.345459,889.578491 980.774658,902.868774 
	C999.013611,902.868774 1016.597778,902.868774 1034.810547,902.868774 
	C1025.880127,881.628845 1017.116211,860.785339 1007.893494,838.850403 
	C1004.131592,847.658508 1000.847717,855.347229 997.189941,863.706848 
z"/>
<path fill="#0C6F6F" opacity="1.000000" stroke="none" 
	d="
M128.002518,504.000793 
	C130.223343,499.584381 132.944550,498.942413 137.189575,501.915436 
	C142.921936,505.930145 149.083130,509.332520 155.568359,513.393738 
	C158.856064,515.507996 160.414352,517.103577 158.301834,520.877686 
	C147.150436,540.800293 138.014999,561.571045 131.445496,583.531616 
	C125.095612,604.758057 120.841431,626.355286 120.189293,648.394958 
	C119.388275,675.466675 120.834175,702.517212 126.643959,729.124023 
	C127.347473,732.345886 126.259148,733.724792 123.340279,734.452637 
	C115.655014,736.368958 107.907372,738.099365 100.348709,740.434937 
	C95.891418,741.812317 94.536163,739.864868 94.018654,736.179993 
	C93.511551,732.569153 93.114357,728.941345 92.741470,725.313477 
	C90.839653,706.810181 88.236549,688.343384 87.237953,669.790710 
	C85.576408,638.921265 89.293625,608.517578 97.700615,578.705688 
	C105.042046,552.672363 115.044922,527.743591 128.002518,504.000793 
z"/>
<path fill="#0C6F6F" opacity="1.000000" stroke="none" 
	d="
M685.870605,500.979187 
	C678.601929,492.158081 671.047424,483.554871 664.122253,474.471832 
	C648.338318,453.769623 628.718994,437.283508 608.538879,421.080475 
	C581.385742,399.278534 550.354431,385.804199 517.800537,374.998138 
	C516.251404,374.483917 514.679016,374.039917 512.418640,373.349884 
	C515.278442,362.500763 518.077820,351.880768 521.038513,340.648956 
	C557.109558,351.593842 589.944214,368.314056 621.866577,388.415649 
	C624.166626,390.524475 625.867310,392.391327 627.866577,393.848480 
	C650.754333,410.530731 671.989197,428.951843 689.139832,451.703735 
	C696.498474,461.465668 703.840881,471.239807 711.286011,481.135193 
	C710.068665,482.088593 709.299377,482.692932 708.528198,483.294861 
	C700.975891,489.189911 693.423157,495.084473 685.870605,500.979187 
z"/>
<path fill="#4DD0BE" opacity="1.000000" stroke="none" 
	d="
M685.888062,501.345612 
	C693.423157,495.084473 700.975891,489.189911 708.528198,483.294861 
	C709.299377,482.692932 710.068665,482.088593 711.286011,481.135193 
	C703.840881,471.239807 696.498474,461.465668 689.139832,451.703735 
	C671.989197,428.951843 650.754333,410.530731 627.866577,393.848480 
	C625.867310,392.391327 624.166626,390.524475 622.194580,388.566711 
	C626.732666,381.476532 631.415161,374.675537 636.068909,367.854889 
	C638.023926,364.989532 639.917969,362.082520 642.273071,358.543182 
	C649.673340,364.135590 656.870239,369.363556 663.839050,374.879700 
	C685.814209,392.274170 706.362915,411.280365 723.092773,433.791016 
	C735.852722,450.959808 747.057251,469.292297 758.765442,487.229980 
	C762.069092,492.291199 761.436462,494.365631 756.151306,497.193298 
	C739.611389,506.042511 722.954407,514.672974 706.401367,523.498047 
	C702.388977,525.637207 699.522034,524.921448 697.261230,521.025757 
	C693.512695,514.566589 689.694397,508.147827 685.888062,501.345612 
z"/>
<path fill="#F0F8F9" opacity="1.000000" stroke="none" 
	d="
M127.572174,503.997559 
	C115.044922,527.743591 105.042046,552.672363 97.700615,578.705688 
	C89.293625,608.517578 85.576408,638.921265 87.237953,669.790710 
	C88.236549,688.343384 90.839653,706.810181 92.741470,725.313477 
	C93.114357,728.941345 93.511551,732.569153 94.018654,736.179993 
	C94.536163,739.864868 95.891418,741.812317 100.348709,740.434937 
	C107.907372,738.099365 115.655014,736.368958 123.340279,734.452637 
	C126.259148,733.724792 127.347473,732.345886 126.643959,729.124023 
	C120.834175,702.517212 119.388275,675.466675 120.189293,648.394958 
	C120.841431,626.355286 125.095612,604.758057 131.445496,583.531616 
	C138.014999,561.571045 147.150436,540.800293 158.301834,520.877686 
	C160.414352,517.103577 158.856064,515.507996 155.910034,513.449585 
	C160.685547,512.735046 165.668320,512.614563 170.544098,511.829590 
	C171.980621,511.598328 174.339447,509.302979 174.183868,508.268036 
	C173.316925,502.500610 177.424393,498.812378 179.421265,494.301422 
	C181.025711,490.676971 183.276184,487.344299 185.080551,483.800964 
	C187.029480,479.973846 189.369705,479.151093 192.752304,482.201721 
	C193.670120,483.029449 195.004944,483.394775 196.382446,484.283813 
	C178.493500,507.107941 162.355225,530.920166 151.592178,557.867065 
	C145.983963,571.908081 141.064560,586.331726 137.237122,600.949890 
	C132.270752,619.917969 131.335632,639.557129 130.441071,659.101318 
	C130.366302,660.734924 131.367706,662.417786 131.895844,664.540283 
	C132.015686,682.865051 131.421432,700.777039 136.058533,718.336182 
	C137.171524,700.457520 135.068054,682.709351 134.040161,664.608398 
	C137.201462,663.525940 138.038055,661.631836 138.389359,658.583801 
	C140.284668,642.139404 141.721069,625.581421 144.828445,609.352173 
	C149.193512,586.554138 157.632355,565.127014 167.873138,544.165039 
	C182.995132,513.211731 203.471039,486.823364 229.582916,464.615448 
	C233.577240,461.218292 237.825806,458.120087 241.956772,454.883606 
	C245.142273,461.420013 245.081833,461.306366 238.428772,464.845001 
	C229.369049,469.663635 222.163315,476.324585 217.473022,485.694550 
	C216.501877,487.634583 213.573395,488.554199 211.639801,490.063049 
	C208.971542,492.145203 205.920074,493.965729 203.861115,496.556610 
	C197.477493,504.589447 191.359009,512.844055 185.431381,521.220398 
	C183.966690,523.290161 183.588211,526.139221 182.764252,528.647705 
	C182.310364,530.029541 182.180481,531.555481 181.535217,532.829407 
	C179.809464,536.236694 178.261795,539.841431 175.923828,542.798889 
	C173.899063,545.360229 170.887909,547.141785 167.610092,549.848145 
	C169.127350,556.906189 166.709320,564.082642 163.053452,571.762146 
	C158.703583,580.899414 157.008240,591.283264 153.939087,601.056763 
	C152.889130,604.400330 150.990768,607.469971 149.807892,610.781921 
	C149.026978,612.968445 148.030182,615.553589 148.522415,617.630249 
	C150.019913,623.947815 151.829666,629.766418 144.964951,634.573730 
	C143.575623,635.546692 143.810150,639.979492 144.460571,642.518982 
	C146.804214,651.669617 146.673676,659.920593 140.290085,667.857666 
	C135.927231,673.282288 137.675903,680.378601 138.518219,686.712585 
	C139.538605,694.385864 142.200516,701.897888 142.664474,709.569702 
	C143.022675,715.492737 141.087891,721.554443 139.747437,727.686218 
	C138.501343,727.172546 137.680359,726.527161 135.869141,725.103271 
	C139.977951,740.824097 143.761642,755.300903 147.545334,769.777710 
	C144.977905,770.385254 142.410477,770.992798 139.364807,771.713501 
	C139.364807,770.468506 139.037354,769.270386 139.421188,768.378235 
	C141.138016,764.387573 141.807175,760.902039 137.300735,758.036682 
	C136.319077,757.412415 135.753220,754.773804 136.204407,753.486450 
	C138.439468,747.109314 136.684326,742.560059 130.861954,739.279602 
	C129.483551,738.502991 128.441071,737.130005 127.587051,736.346191 
	C123.333260,738.803955 119.633080,741.285217 115.632843,743.107788 
	C113.643501,744.014221 110.823799,744.499451 108.868057,743.803284 
	C103.906029,742.037170 102.117264,744.013367 101.570969,748.542114 
	C101.523697,748.933899 100.934250,749.260193 99.775612,750.484497 
	C96.880936,747.101746 93.742104,744.032471 91.310783,740.479004 
	C84.282455,730.207031 84.639412,718.125854 82.671097,706.423828 
	C79.021545,684.726624 80.390770,663.021667 80.084618,641.309509 
	C80.006042,635.736816 80.942001,630.149719 81.430672,624.346130 
	C83.185570,624.346130 84.764336,624.346130 87.334396,624.346130 
	C86.510422,621.759277 86.074333,619.189941 84.920181,616.998779 
	C81.837196,611.145630 83.070312,605.662659 84.984261,599.730896 
	C88.450439,588.988464 92.514648,578.368408 93.139259,566.843994 
	C93.315918,563.584534 95.089211,560.395020 96.230049,557.209106 
	C97.400238,553.941284 98.670280,550.708374 99.936790,547.476013 
	C101.851593,542.588989 103.594147,537.619995 105.793289,532.862976 
	C108.071190,527.935791 110.477760,523.004089 113.449409,518.482727 
	C115.662842,515.114990 118.866173,512.397888 121.998131,508.988800 
	C119.687447,507.499451 117.445168,506.054199 115.202896,504.608948 
	C115.305336,504.078674 115.407776,503.548370 115.510223,503.018097 
	C119.387421,503.343506 123.264626,503.668945 127.572174,503.997559 
z"/>
<path fill="#30BFB0" opacity="1.000000" stroke="none" 
	d="
M1561.893311,825.701294 
	C1561.915527,822.074829 1562.140625,818.897522 1561.916870,815.752014 
	C1561.629395,811.710632 1563.709106,810.411743 1567.270630,810.425720 
	C1596.564575,810.540649 1625.858643,810.653320 1655.152588,810.773743 
	C1660.124878,810.794189 1665.097900,810.797180 1670.068604,810.905151 
	C1673.216309,810.973389 1675.035889,812.533447 1675.030518,815.856506 
	C1675.022339,821.001892 1675.028564,826.147339 1675.028564,832.340454 
	C1660.072876,832.340454 1645.364014,832.340454 1630.034058,832.340454 
	C1630.034058,835.149170 1630.031372,836.915833 1630.034424,838.682495 
	C1630.098877,875.478699 1630.171631,912.274841 1630.223389,949.071045 
	C1630.236694,958.510376 1629.459229,959.218323 1619.943237,958.925232 
	C1617.619019,958.853577 1615.292725,958.825989 1612.967407,958.821716 
	C1607.942993,958.812500 1606.014160,956.670105 1606.045654,951.326355 
	C1606.217285,922.192749 1605.986084,893.056885 1605.946289,863.921753 
	C1605.934448,855.265503 1606.249756,846.605164 1606.035156,837.956116 
	C1605.995117,836.343384 1604.490112,834.114075 1603.039307,833.349976 
	C1601.106567,832.332031 1598.567871,832.184875 1596.284424,832.161499 
	C1586.963379,832.065735 1577.639648,832.091797 1568.318604,832.214355 
	C1564.074219,832.270203 1561.556641,830.817383 1561.893311,825.701294 
z"/>
<path fill="#30BFB0" opacity="1.000000" stroke="none" 
	d="
M928.194824,830.021179 
	C927.974609,830.602356 927.754395,831.183533 926.808105,831.877563 
	C914.590393,831.993042 903.080688,831.598816 891.612671,832.120850 
	C882.057922,832.555847 882.222595,833.632507 882.086914,841.544312 
	C881.986938,847.371765 882.075562,853.202393 882.065735,859.031616 
	C882.009705,892.338867 881.949402,925.646057 881.890442,958.953308 
	C881.890442,958.953308 881.445862,959.028442 880.767700,959.014221 
	C875.927063,958.981445 871.764343,958.991699 867.602356,958.938110 
	C859.515686,958.834045 858.119202,957.477051 858.107849,949.219604 
	C858.057129,912.253967 858.058594,875.288330 858.041321,838.322693 
	C858.040405,836.385071 858.041138,834.447510 858.041138,832.067200 
	C855.620972,832.067200 853.826599,832.070190 852.032227,832.066711 
	C841.708740,832.046509 831.385010,831.975037 821.061890,832.029602 
	C817.243469,832.049744 814.921692,830.456177 814.800232,826.569580 
	C814.642151,821.514160 814.761536,816.450073 814.761536,810.932983 
	C817.665710,810.932983 819.802246,810.936035 821.938843,810.932434 
	C843.085205,810.897400 864.231506,810.864990 885.377869,810.824036 
	C896.865234,810.801819 908.354248,810.638550 919.839417,810.781311 
	C926.756653,810.867310 927.921509,812.296814 927.968140,819.049194 
	C927.993469,822.706848 928.116089,826.363892 928.194824,830.021179 
z"/>
<path fill="#32C0B1" opacity="1.000000" stroke="none" 
	d="
M1118.135254,828.004272 
	C1118.135376,822.386475 1118.135376,817.267517 1118.135376,811.598389 
	C1126.605713,811.598389 1134.521362,811.598389 1143.031006,811.598389 
	C1143.031006,853.232361 1143.031006,895.110046 1143.031006,937.477783 
	C1167.366211,937.477783 1191.126587,937.477783 1215.455811,937.477783 
	C1215.455811,944.656067 1215.455811,951.363831 1215.455811,958.562744 
	C1183.345825,958.562744 1151.087402,958.562744 1118.135254,958.562744 
	C1118.135254,915.343079 1118.135254,871.923096 1118.135254,828.004272 
z"/>
<path fill="#4DD0BE" opacity="1.000000" stroke="none" 
	d="
M1621.033813,697.000000 
	C1621.033569,713.150757 1621.050171,728.801514 1621.026245,744.452271 
	C1621.013794,752.543335 1619.487793,753.922302 1611.295288,753.773926 
	C1607.500488,753.705200 1603.673584,754.149475 1599.919556,753.775757 
	C1598.541382,753.638550 1596.915039,752.041321 1596.171387,750.687439 
	C1595.533081,749.525391 1595.970825,747.760864 1595.968262,746.262695 
	C1595.877808,692.152283 1595.791260,638.041931 1595.704590,583.931519 
	C1595.701782,582.151978 1595.704346,580.372375 1595.704346,578.134277 
	C1602.739258,578.134277 1609.199585,577.869019 1615.609375,578.321472 
	C1617.203491,578.434021 1619.304443,580.600830 1619.977295,582.297363 
	C1620.917480,584.667664 1620.990845,587.482666 1620.995117,590.108093 
	C1621.052612,625.571960 1621.033691,661.036011 1621.033813,697.000000 
z"/>
<path fill="#4DD0BE" opacity="1.000000" stroke="none" 
	d="
M495.447296,368.545105 
	C483.082581,367.095245 471.095123,365.515320 459.106384,363.945068 
	C453.487152,363.209015 451.650726,361.477386 452.029572,355.924011 
	C453.113281,340.038177 454.470886,324.171021 455.715637,308.296112 
	C455.819489,306.971466 455.917236,305.644867 455.962830,304.317322 
	C456.228210,296.592407 459.143463,294.442932 466.591461,295.326172 
	C481.882812,297.139496 497.221802,298.551575 513.567139,300.234467 
	C512.175903,306.923004 510.928711,313.285553 509.521088,319.612396 
	C506.360962,333.815948 503.233307,348.028992 499.800049,362.167175 
	C499.248383,364.438965 497.187317,366.344238 495.447296,368.545105 
z"/>
<path fill="#0D6F6F" opacity="1.000000" stroke="none" 
	d="
M229.357117,897.675354 
	C244.394241,908.014771 259.111328,918.194092 273.950897,928.191650 
	C280.207336,932.406616 280.584503,933.263611 277.071533,940.149170 
	C274.133484,945.908020 270.995361,951.581360 268.394623,957.490112 
	C266.498566,961.797729 264.032410,962.448486 260.345215,960.011230 
	C248.325516,952.066040 235.844711,944.721619 224.422867,935.992676 
	C209.308640,924.441711 195.026871,911.801636 180.037308,899.338684 
	C189.145477,891.006165 197.232925,883.607422 205.469376,876.072388 
	C213.375519,883.226074 221.231033,890.333984 229.357117,897.675354 
z"/>
<path fill="#0D6F6F" opacity="1.000000" stroke="none" 
	d="
M352.808868,360.914642 
	C352.076477,352.682648 351.344116,344.450623 350.534576,335.351074 
	C356.738831,334.257599 363.024078,333.265045 369.260925,332.028320 
	C385.928955,328.723114 402.761505,327.701538 419.717102,328.001251 
	C426.082855,328.113770 426.790131,328.756470 427.078369,335.089325 
	C427.327515,340.564545 428.033600,346.022156 428.190552,351.497498 
	C428.370209,357.764771 426.444519,360.242310 421.215363,360.817413 
	C399.132629,363.246246 377.041656,365.599945 354.505188,367.556091 
	C353.784485,365.743591 353.512299,364.356018 353.241455,362.613281 
	C353.098145,361.810272 352.953491,361.362457 352.808868,360.914642 
z"/>
<path fill="#41CBBB" opacity="1.000000" stroke="none" 
	d="
M353.240112,362.968445 
	C353.512299,364.356018 353.784485,365.743591 354.087830,367.497925 
	C342.812561,371.306610 331.506165,374.748505 319.487732,378.032349 
	C317.804993,376.523193 316.834290,375.172119 315.863556,373.821045 
	C312.352997,362.497864 309.014984,351.117310 305.276978,339.869720 
	C302.310669,330.944183 298.854462,322.181458 295.129852,312.020752 
	C307.655945,307.757996 319.832245,303.614258 333.042938,299.118500 
	C335.569946,311.176331 337.861389,322.110291 340.162781,333.838074 
	C338.729218,337.902740 335.616791,341.509186 336.192871,344.373901 
	C337.359528,350.175964 339.812378,356.076599 343.204102,360.904480 
	C344.633209,362.938690 349.782135,362.359619 353.240112,362.968445 
z"/>
<path fill="#197E7A" opacity="1.000000" stroke="none" 
	d="
M131.869125,664.077759 
	C131.367706,662.417786 130.366302,660.734924 130.441071,659.101318 
	C131.335632,639.557129 132.270752,619.917969 137.237122,600.949890 
	C141.064560,586.331726 145.983963,571.908081 151.592178,557.867065 
	C162.355225,530.920166 178.493500,507.107941 196.745224,484.290802 
	C200.305923,480.418549 203.992920,477.059967 207.122543,473.244263 
	C216.914856,461.305267 230.285492,453.685181 241.955627,444.022186 
	C245.500900,441.086670 249.461166,438.649506 253.254318,436.017212 
	C255.311676,434.589417 257.703979,434.314270 258.577637,436.890991 
	C259.075653,438.359802 258.310730,441.097412 257.125458,442.148865 
	C252.327225,446.405640 247.145233,450.229797 242.030792,454.548584 
	C237.825806,458.120087 233.577240,461.218292 229.582916,464.615448 
	C203.471039,486.823364 182.995132,513.211731 167.873138,544.165039 
	C157.632355,565.127014 149.193512,586.554138 144.828445,609.352173 
	C141.721069,625.581421 140.284668,642.139404 138.389359,658.583801 
	C138.038055,661.631836 137.201462,663.525940 133.786926,664.512939 
	C132.847565,664.518311 132.358337,664.298035 131.869125,664.077759 
z"/>
<path fill="#E9F7FA" opacity="1.000000" stroke="none" 
	d="
M928.529053,829.970703 
	C928.116089,826.363892 927.993469,822.706848 927.968140,819.049194 
	C927.921509,812.296814 926.756653,810.867310 919.839417,810.781311 
	C908.354248,810.638550 896.865234,810.801819 885.377869,810.824036 
	C864.231506,810.864990 843.085205,810.897400 821.938843,810.932434 
	C819.802246,810.936035 817.665710,810.932983 814.761536,810.932983 
	C814.761536,816.450073 814.642151,821.514160 814.800232,826.569580 
	C814.921692,830.456177 817.243469,832.049744 821.061890,832.029602 
	C831.385010,831.975037 841.708740,832.046509 852.032227,832.066711 
	C853.826599,832.070190 855.620972,832.067200 858.041138,832.067200 
	C858.041138,834.447510 858.040405,836.385071 858.041321,838.322693 
	C858.058594,875.288330 858.057129,912.253967 858.107849,949.219604 
	C858.119202,957.477051 859.515686,958.834045 867.602356,958.938110 
	C871.764343,958.991699 875.927063,958.981445 880.552734,959.082275 
	C878.563782,960.102234 876.166260,961.612671 873.647461,961.853027 
	C869.028931,962.293945 864.331299,962.152649 859.680420,961.946106 
	C854.211975,961.703125 852.076538,959.241516 852.000854,953.673645 
	C851.996338,953.340820 852.083618,952.981445 851.987976,952.678772 
	C848.293762,940.988464 855.454834,930.096863 854.257385,918.356689 
	C852.829956,904.362732 853.365540,890.171326 852.981750,876.067322 
	C852.715637,866.287781 852.233704,856.513428 852.033386,846.733032 
	C851.869263,838.718628 847.260010,835.092468 839.171509,836.042114 
	C832.611389,836.812378 825.903809,837.319580 819.340759,836.846313 
	C808.929749,836.095581 803.119446,822.015747 808.667480,811.966614 
	C811.276306,807.241211 814.814758,804.834656 820.687866,804.882141 
	C852.143433,805.137024 883.606323,804.740112 915.056091,805.238770 
	C920.873535,805.330994 926.848145,808.018616 932.365784,810.399353 
	C936.484192,812.176331 937.310547,818.910400 934.412781,823.752869 
	C933.019226,826.081665 930.740906,827.881104 928.529053,829.970703 
z"/>
<path fill="#0C6F6F" opacity="1.000000" stroke="none" 
	d="
M662.913025,908.530273 
	C656.074829,914.330261 649.317688,919.804260 642.744507,925.129150 
	C636.066711,917.522766 629.259705,909.769287 622.108643,901.906982 
	C632.775879,889.889893 643.755981,877.952087 654.881714,866.151672 
	C655.505249,865.490356 657.823120,865.391113 658.518860,865.993225 
	C665.544495,872.073914 672.424072,878.325195 679.283203,884.595764 
	C682.044617,887.120300 680.442505,889.238708 678.479919,891.348694 
	C673.283630,896.935364 668.151672,902.581726 662.913025,908.530273 
z"/>
<path fill="#197E7A" opacity="1.000000" stroke="none" 
	d="
M442.859741,464.984711 
	C429.446014,464.977417 416.515472,464.977417 402.790405,464.977417 
	C402.428192,463.080872 401.214325,459.767578 401.426086,456.548004 
	C401.531677,454.942169 404.065186,452.463135 405.808380,452.162109 
	C419.112396,449.864655 432.472809,449.810730 445.965851,451.050446 
	C466.536987,452.940521 486.323700,457.793152 505.572388,465.038727 
	C511.431274,467.244080 517.077515,470.014404 523.455200,472.803223 
	C521.910645,475.326416 520.336426,477.408417 519.291443,479.728729 
	C517.974060,482.653778 516.191833,482.861816 513.416992,481.903748 
	C502.035858,477.974426 490.786285,473.423645 479.123444,470.618500 
	C467.422424,467.804138 455.287628,466.793274 442.859741,464.984711 
z"/>
<path fill="#0D706F" opacity="1.000000" stroke="none" 
	d="
M721.583862,800.473328 
	C725.363647,802.243591 728.780212,803.920776 732.302551,805.334595 
	C735.662659,806.683411 736.471252,808.565430 734.534729,811.766296 
	C728.104553,822.394775 721.772278,833.082458 715.118408,844.223083 
	C705.472473,838.218445 696.012390,832.329468 686.056396,826.131775 
	C692.211548,814.864624 698.194885,803.911926 704.361938,792.622986 
	C710.200806,795.262512 715.733887,797.763855 721.583862,800.473328 
z"/>
<path fill="#0D706F" opacity="1.000000" stroke="none" 
	d="
M208.786346,427.214478 
	C205.241806,423.507172 201.946228,420.050873 198.257202,416.181946 
	C207.027649,408.547882 215.325592,401.211090 223.828049,394.119476 
	C224.589371,393.484406 227.404495,393.895599 228.032135,394.738983 
	C233.366364,401.906830 238.541977,409.204865 243.404877,416.697693 
	C244.097977,417.765625 243.474716,420.809296 242.415451,421.711731 
	C235.362930,427.720215 228.026062,433.394958 221.029068,438.980621 
	C216.908844,435.024841 212.972076,431.245178 208.786346,427.214478 
z"/>
<path fill="#0D706F" opacity="1.000000" stroke="none" 
	d="
M315.532623,373.730621 
	C316.834290,375.172119 317.804993,376.523193 319.097534,378.048370 
	C310.604553,382.623505 301.789734,387.024506 292.573212,391.626099 
	C287.652283,381.315887 282.991669,371.551056 278.130371,361.365784 
	C285.712982,357.735901 292.805969,354.258606 299.973236,350.941864 
	C303.886139,349.131104 304.912354,352.856262 305.957825,354.955658 
	C308.156250,359.370392 309.506714,364.199402 311.515137,368.720673 
	C312.326050,370.546173 313.948547,372.011169 315.532623,373.730621 
z"/>
<path fill="#E9F7FA" opacity="1.000000" stroke="none" 
	d="
M882.252869,958.937195 
	C881.949402,925.646057 882.009705,892.338867 882.065735,859.031616 
	C882.075562,853.202393 881.986938,847.371765 882.086914,841.544312 
	C882.222595,833.632507 882.057922,832.555847 891.612671,832.120850 
	C903.080688,831.598816 914.590393,831.993042 926.548340,832.052979 
	C926.217163,833.377502 925.569946,835.598572 924.598694,835.750610 
	C916.413757,837.032410 908.567871,840.999268 899.720032,837.792969 
	C897.593384,837.022278 892.645203,839.952026 891.096313,842.471924 
	C887.130859,848.923096 886.009216,856.160156 887.633423,863.973572 
	C888.662659,868.924500 888.074768,874.246338 887.945374,879.395142 
	C887.753845,887.008911 887.172485,894.613892 887.036499,902.227661 
	C886.871521,911.456055 886.873535,920.691895 887.039246,929.920288 
	C887.158081,936.535889 887.666382,943.144348 887.996765,949.756287 
	C888.208130,953.986328 886.609985,957.158508 882.252869,958.937195 
z"/>
<path fill="#0D706F" opacity="1.000000" stroke="none" 
	d="
M184.731796,476.013397 
	C175.841339,470.309662 167.276291,464.428955 158.376541,458.318420 
	C162.659607,452.568298 166.357132,447.086151 170.709305,442.185455 
	C171.612442,441.168518 175.640152,441.456482 177.039673,442.598785 
	C183.975952,448.260376 190.513992,454.409821 197.415314,460.586884 
	C193.192795,465.797333 189.125000,470.816864 184.731796,476.013397 
z"/>
<path fill="#579491" opacity="1.000000" stroke="none" 
	d="
M441.975128,856.061340 
	C468.495697,857.463867 491.950104,846.888000 516.440002,839.911316 
	C505.705048,855.248657 420.718475,867.287903 399.028748,856.083862 
	C413.903015,856.083862 427.694366,856.083862 441.975128,856.061340 
z"/>
<path fill="#52918D" opacity="1.000000" stroke="none" 
	d="
M239.115906,709.667725 
	C237.667770,698.081909 236.084259,686.909790 235.061554,675.686584 
	C234.317139,667.517334 233.492752,659.208374 234.207184,651.094055 
	C234.938766,642.785156 237.425995,634.619995 239.341751,626.437988 
	C239.632660,625.195618 240.990524,624.203064 242.747650,623.269958 
	C237.393890,654.532654 238.511398,685.596252 243.943039,716.634338 
	C243.378342,716.729980 242.813629,716.825623 242.248932,716.921265 
	C241.239563,714.634033 240.230179,712.346863 239.115906,709.667725 
z"/>
<path fill="#52918D" opacity="1.000000" stroke="none" 
	d="
M647.193848,521.837830 
	C636.857178,509.492554 626.717712,497.445435 616.742615,485.263672 
	C615.396118,483.619324 614.875977,481.298401 613.611389,478.486267 
	C626.302124,485.205292 655.278931,520.507568 655.411255,530.498230 
	C652.160034,527.069153 649.801331,524.581421 647.193848,521.837830 
z"/>
<path fill="#52918D" opacity="1.000000" stroke="none" 
	d="
M538.748657,829.744934 
	C534.878174,832.644348 531.574524,836.241638 527.289795,834.518066 
	C545.048645,818.712952 562.949219,802.781738 581.745117,786.053711 
	C580.890442,788.571960 580.736572,790.851318 579.546814,792.248413 
	C567.568176,806.313904 554.596191,819.335876 538.748657,829.744934 
z"/>
<path fill="#52918D" opacity="1.000000" stroke="none" 
	d="
M274.053589,557.082764 
	C268.421234,564.185059 262.980957,570.986389 257.540680,577.787720 
	C257.132629,577.444336 256.724579,577.100891 256.316498,576.757446 
	C267.893738,551.959595 286.570068,533.179382 308.518005,517.169373 
	C297.093903,530.373535 285.669769,543.577759 274.053589,557.082764 
z"/>
<path fill="#579491" opacity="1.000000" stroke="none" 
	d="
M305.607483,811.388794 
	C315.790955,818.760803 325.734528,825.873474 335.696747,832.959900 
	C337.882965,834.514954 340.135468,835.976868 343.028351,837.935974 
	C331.894226,840.265808 282.750519,801.293884 278.897064,787.138550 
	C288.355591,795.705505 296.864960,803.412720 305.607483,811.388794 
z"/>
<path fill="#579491" opacity="1.000000" stroke="none" 
	d="
M370.042114,866.952637 
	C363.833496,865.343811 357.449463,864.217834 351.448364,862.037720 
	C331.662598,854.849487 313.653992,844.299011 296.643372,831.989563 
	C293.488129,829.706238 293.495819,829.600891 295.658936,825.682190 
	C299.268463,828.355347 302.828766,830.983337 306.379944,833.623596 
	C324.100250,846.798157 343.640137,856.479797 364.366882,863.901672 
	C366.218567,864.564697 367.961792,865.530762 369.879333,866.675415 
	C370.003296,866.994751 370.042114,866.952698 370.042114,866.952637 
z"/>
<path fill="#52918D" opacity="1.000000" stroke="none" 
	d="
M248.367279,740.666870 
	C246.648071,734.558411 242.798630,729.196411 245.181717,721.798523 
	C249.695984,732.262207 253.594589,742.072388 258.124847,751.581604 
	C262.640106,761.059387 267.788879,770.235291 272.328461,779.730957 
	C260.799561,769.030579 254.919250,754.871216 248.367279,740.666870 
z"/>
<path fill="#52918D" opacity="1.000000" stroke="none" 
	d="
M570.037109,447.958771 
	C560.855225,441.958740 550.628601,438.148376 542.562866,430.196808 
	C549.116516,428.479523 579.300415,445.597687 581.582825,451.821930 
	C576.833069,453.517426 573.976196,449.641022 570.037109,447.958771 
z"/>
<path fill="#52918D" opacity="1.000000" stroke="none" 
	d="
M496.890808,416.783325 
	C485.089569,413.728149 472.860809,413.871460 461.306915,408.552002 
	C466.529449,404.199219 497.355896,409.767517 501.846405,415.377045 
	C500.170685,415.924347 498.723633,416.396973 496.890808,416.783325 
z"/>
<path fill="#ACE2D8" opacity="1.000000" stroke="none" 
	d="
M353.241455,362.613281 
	C349.782135,362.359619 344.633209,362.938690 343.204102,360.904480 
	C339.812378,356.076599 337.359528,350.175964 336.192871,344.373901 
	C335.616791,341.509186 338.729218,337.902740 340.265625,334.248199 
	C346.557404,339.240570 345.347839,347.061920 347.121338,353.928162 
	C347.830902,356.675323 346.720825,361.215118 352.421570,360.915009 
	C352.953491,361.362457 353.098145,361.810272 353.241455,362.613281 
z"/>
<path fill="#579491" opacity="1.000000" stroke="none" 
	d="
M147.719452,770.067688 
	C143.761642,755.300903 139.977951,740.824097 135.869141,725.103271 
	C137.680359,726.527161 138.501343,727.172546 139.588425,728.044250 
	C142.231995,745.110962 147.397079,761.165283 153.850693,776.814453 
	C157.058807,784.593628 160.781052,792.160828 164.015945,799.964294 
	C156.768616,791.134460 152.468307,780.669861 147.719452,770.067688 
z"/>
<path fill="#579491" opacity="1.000000" stroke="none" 
	d="
M387.318115,873.571411 
	C384.856079,872.865234 382.772888,872.337219 380.709778,871.739807 
	C380.505127,871.680603 380.423157,871.197693 380.290588,870.908447 
	C383.531494,868.574951 423.011505,873.399292 428.316284,877.231628 
	C414.136688,877.486633 400.857117,876.452759 387.318115,873.571411 
z"/>
<path fill="#579491" opacity="1.000000" stroke="none" 
	d="
M222.992889,877.010132 
	C233.515442,884.709900 244.015640,892.440430 254.570435,900.095825 
	C259.479584,903.656433 264.494843,907.070801 268.888519,911.334473 
	C251.371918,903.010681 235.921127,891.854553 222.867294,877.294678 
	C223.015427,876.979065 222.992889,877.010132 222.992889,877.010132 
z"/>
<path fill="#ACE2D8" opacity="1.000000" stroke="none" 
	d="
M241.203247,801.808228 
	C246.843399,808.769226 252.330399,815.396790 257.640503,822.163208 
	C259.493469,824.524353 260.910065,827.228027 263.075165,830.640991 
	C256.110382,828.748352 235.984726,804.749512 233.454529,794.607239 
	C235.963211,796.914612 238.471878,799.221985 241.203247,801.808228 
z"/>
<path fill="#ACE2D8" opacity="1.000000" stroke="none" 
	d="
M207.045715,742.704346 
	C207.782410,742.328308 208.971054,742.108765 209.091553,742.374268 
	C214.706085,754.739929 220.238403,767.143250 225.716324,779.570312 
	C225.913925,780.018555 225.470306,780.749390 224.910980,783.064148 
	C221.626053,777.938843 218.676147,774.130127 216.591232,769.895508 
	C213.535065,763.688232 210.956848,757.230469 208.470657,750.765686 
	C207.549957,748.371582 207.465317,745.655945 207.045715,742.704346 
z"/>
<path fill="#ACE2D8" opacity="1.000000" stroke="none" 
	d="
M599.939636,865.357666 
	C598.028564,869.803284 596.054382,873.867676 594.070557,877.952087 
	C585.616821,875.774902 585.156311,868.196899 581.249695,863.368286 
	C581.686096,862.885925 582.122498,862.403564 582.558960,861.921204 
	C584.774536,863.917480 586.884766,866.051331 589.245056,867.858704 
	C590.675842,868.954407 593.036926,870.647583 594.036133,870.155518 
	C597.063232,868.664795 595.606323,866.138916 594.479614,863.795166 
	C593.254517,861.246765 589.799744,859.219604 592.662964,854.549316 
	C595.315613,858.383667 597.596069,861.680115 599.939636,865.357666 
z"/>
<path fill="#ACE2D8" opacity="1.000000" stroke="none" 
	d="
M192.282501,669.928223 
	C193.560181,658.179932 194.711823,646.828613 196.044098,635.498535 
	C196.221954,633.985962 197.314560,632.580933 197.983551,631.126099 
	C198.631912,632.715027 199.934097,634.351135 199.823593,635.885376 
	C199.051315,646.607605 198.036377,657.313904 196.951385,668.010315 
	C196.820068,669.304993 195.952652,670.635620 195.082199,671.656006 
	C194.897263,671.872742 193.208801,670.806885 192.282501,669.928223 
z"/>
<path fill="#579491" opacity="1.000000" stroke="none" 
	d="
M251.573013,596.597290 
	C249.080307,602.972534 246.784363,609.010681 244.488403,615.048828 
	C243.741806,614.782166 242.995209,614.515564 242.248611,614.248901 
	C242.234085,602.246033 249.589325,592.523376 253.194168,581.640320 
	C253.867004,581.618225 254.539841,581.596130 255.212677,581.574097 
	C255.375183,583.109558 256.014099,584.787231 255.606644,586.152710 
	C254.578934,589.596802 253.079910,592.900330 251.573013,596.597290 
z"/>
<path fill="#579491" opacity="1.000000" stroke="none" 
	d="
M183.115021,829.853760 
	C191.856308,841.234131 200.435516,852.293701 209.224945,863.624329 
	C202.947540,861.577942 180.894150,834.450623 176.934662,821.517517 
	C179.440735,824.855286 181.196838,827.194153 183.115021,829.853760 
z"/>
<path fill="#33C0B1" opacity="1.000000" stroke="none" 
	d="
M206.568634,600.638733 
	C203.772827,609.190491 203.016479,618.030334 197.979965,625.373657 
	C199.274048,614.102661 199.575378,602.565308 206.358673,592.958069 
	C206.916611,593.092407 207.474564,593.226685 208.032501,593.361023 
	C207.603592,595.663147 207.174683,597.965332 206.568634,600.638733 
z"/>
<path fill="#579491" opacity="1.000000" stroke="none" 
	d="
M363.808350,845.361938 
	C372.666840,847.955383 381.164764,850.378296 389.662689,852.801208 
	C389.680817,853.196838 389.698944,853.592468 389.717102,853.988098 
	C388.330109,854.328979 386.758423,855.274902 385.584869,854.916626 
	C374.407898,851.504639 363.298462,847.871338 352.169617,844.301636 
	C352.330963,843.624451 352.492279,842.947266 352.653595,842.270081 
	C356.251648,843.243896 359.849701,844.217651 363.808350,845.361938 
z"/>
<path fill="#197E7A" opacity="1.000000" stroke="none" 
	d="
M525.300232,421.721405 
	C525.271423,422.515381 525.143005,423.320770 524.761292,423.467651 
	C519.952881,425.317749 509.598297,421.256165 506.778259,416.489136 
	C511.748138,413.924957 521.074219,416.440643 525.300232,421.721405 
z"/>
<path fill="#ACE2D8" opacity="1.000000" stroke="none" 
	d="
M200.959595,714.548401 
	C199.023087,716.904480 197.711609,716.523132 197.092941,713.315186 
	C196.279755,709.098633 195.847626,704.800781 195.407516,700.521851 
	C194.781830,694.438721 194.297958,688.341003 193.753494,682.249512 
	C194.183807,682.180847 194.614120,682.112183 195.044434,682.043518 
	C197.015305,692.744141 198.986176,703.444702 200.959595,714.548401 
z"/>
<path fill="#ACE2D8" opacity="1.000000" stroke="none" 
	d="
M340.046509,906.219604 
	C342.471100,899.689514 344.898071,897.801147 349.292114,899.104614 
	C350.290283,899.400757 350.977081,900.746460 351.807190,901.609009 
	C350.912933,902.364380 350.049255,903.727417 349.119446,903.774170 
	C344.000000,904.031128 342.472534,906.409851 344.681824,911.258911 
	C345.276947,912.565125 346.093353,913.770569 346.846497,915.089478 
	C340.523376,916.483093 337.944427,913.159119 340.046509,906.219604 
z"/>
<path fill="#ACE2D8" opacity="1.000000" stroke="none" 
	d="
M555.435547,886.687012 
	C555.292053,884.584839 555.292053,882.893494 555.292053,881.202148 
	C555.773132,881.034668 556.254211,880.867188 556.735291,880.699646 
	C559.412231,884.671143 562.089172,888.642578 565.009033,892.974426 
	C562.540405,894.991455 560.174988,896.924133 556.699463,899.763733 
	C556.253540,894.722839 555.916321,890.910278 555.435547,886.687012 
z"/>
<path fill="#ACE2D8" opacity="1.000000" stroke="none" 
	d="
M491.835541,908.033081 
	C493.462250,903.462830 496.598267,905.221252 500.614105,905.377502 
	C496.185577,909.898376 494.020538,914.326416 495.412720,920.044739 
	C495.675201,921.122864 493.003113,922.915405 491.685181,924.378357 
	C491.146118,924.148071 490.607025,923.917786 490.067963,923.687500 
	C490.625000,918.607056 491.182007,913.526611 491.835541,908.033081 
z"/>
<path fill="#ACE2D8" opacity="1.000000" stroke="none" 
	d="
M399.861267,866.147339 
	C395.862427,865.116455 392.281097,864.155823 388.699768,863.195129 
	C388.793945,862.822083 388.888153,862.449036 388.982361,862.075989 
	C401.466370,863.702698 413.950409,865.329346 426.434448,866.955994 
	C417.662109,868.151428 408.923706,868.602783 399.861267,866.147339 
z"/>
<path fill="#ACE2D8" opacity="1.000000" stroke="none" 
	d="
M641.239380,823.636841 
	C637.395325,821.652710 633.861694,819.846558 629.698975,817.718872 
	C630.999878,815.569397 632.105713,813.742249 633.494690,811.447266 
	C637.039978,814.155029 640.271790,816.215149 642.921448,818.858826 
	C643.906921,819.842041 643.529236,822.191467 643.773193,823.917847 
	C643.031982,823.883484 642.290894,823.849121 641.239380,823.636841 
z"/>
<path fill="#ACE2D8" opacity="1.000000" stroke="none" 
	d="
M646.487305,812.673401 
	C644.103088,810.841675 641.893005,809.356201 640.019409,807.526245 
	C639.191223,806.717407 639.045166,805.210205 638.589417,804.020020 
	C639.919434,803.943420 641.446106,803.410461 642.540039,803.881897 
	C645.092834,804.981812 647.774902,806.205505 649.757202,808.068176 
	C651.271423,809.490967 651.793213,811.970154 652.756409,813.979431 
	C650.770386,813.612854 648.784363,813.246216 646.487305,812.673401 
z"/>
<path fill="#ACE2D8" opacity="1.000000" stroke="none" 
	d="
M291.101990,879.375000 
	C291.983398,877.961975 292.645477,876.841370 293.342926,875.660828 
	C296.189911,879.529968 295.215912,881.552246 287.245972,888.686951 
	C278.516449,884.568909 276.244629,884.140869 281.170166,879.382141 
	C283.674377,881.124390 286.136780,882.837463 288.913208,884.769043 
	C289.843658,882.358826 290.363159,881.013062 291.101990,879.375000 
z"/>
<path fill="#ACE2D8" opacity="1.000000" stroke="none" 
	d="
M334.707642,486.422424 
	C334.348633,487.023376 334.198700,487.372681 333.934296,487.531525 
	C331.718781,488.862854 329.482208,490.159210 327.252014,491.466125 
	C325.904846,488.703796 324.557709,485.941528 323.210541,483.179260 
	C323.626465,482.893311 324.042389,482.607361 324.458313,482.321442 
	C326.001160,482.668823 327.544006,483.016235 329.455933,483.446747 
	C330.136230,482.505219 330.941132,481.391235 332.482941,479.257385 
	C333.465698,482.074829 334.164642,484.078644 334.707642,486.422424 
z"/>
<path fill="#197E7A" opacity="1.000000" stroke="none" 
	d="
M591.634033,456.089417 
	C594.874878,459.140167 597.774719,462.028107 600.674622,464.916046 
	C600.175232,465.522614 599.675903,466.129181 599.176514,466.735748 
	C594.117676,463.719025 589.058777,460.702301 583.868774,457.607361 
	C586.012573,453.856506 588.624634,454.744629 591.634033,456.089417 
z"/>
<path fill="#ACE2D8" opacity="1.000000" stroke="none" 
	d="
M532.267456,895.793274 
	C533.977051,899.254761 535.892395,902.323608 536.719421,905.662109 
	C537.027588,906.906067 534.791870,908.780151 533.581909,910.564880 
	C531.742432,905.553711 530.291931,901.759949 528.971497,897.921448 
	C528.495239,896.536865 528.331299,895.044922 528.024841,893.601929 
	C529.363525,894.237244 530.702271,894.872498 532.267456,895.793274 
z"/>
<path fill="#ACE2D8" opacity="1.000000" stroke="none" 
	d="
M513.932068,906.476929 
	C514.694763,907.786621 515.419373,908.766357 515.710693,909.861328 
	C517.217224,915.525208 514.556213,918.417969 507.431183,917.434937 
	C508.887573,913.501709 510.235687,909.772644 511.718781,906.097961 
	C511.799194,905.898743 513.009644,906.155640 513.932068,906.476929 
z"/>
<path fill="#ACE2D8" opacity="1.000000" stroke="none" 
	d="
M232.706635,833.730286 
	C230.472565,835.799011 228.494858,837.619202 226.042786,839.875977 
	C225.173340,833.687195 232.468735,826.454224 240.220062,826.251099 
	C237.801025,828.661316 235.382004,831.071533 232.706635,833.730286 
z"/>
<path fill="#ACE2D8" opacity="1.000000" stroke="none" 
	d="
M304.095428,895.290710 
	C302.159546,895.769958 300.528351,896.037964 298.897186,896.305969 
	C298.958344,893.963379 298.698547,891.536865 299.276062,889.329346 
	C299.449524,888.666260 302.001312,888.215088 303.381836,888.374512 
	C305.428955,888.610901 307.403259,889.478210 310.289154,890.339844 
	C307.893860,892.267639 306.147003,893.673584 304.095428,895.290710 
z"/>
<path fill="#ACE2D8" opacity="1.000000" stroke="none" 
	d="
M625.084106,846.733704 
	C619.219360,844.602905 617.250854,839.304749 612.799316,834.406372 
	C621.826538,836.567383 626.401978,841.453003 625.084106,846.733704 
z"/>
<path fill="#ACE2D8" opacity="1.000000" stroke="none" 
	d="
M222.015640,563.012512 
	C220.206177,567.263428 218.526596,571.578003 216.494003,575.719421 
	C215.998734,576.728577 214.344055,577.168701 213.222473,577.870483 
	C212.984833,576.587097 212.094772,574.848145 212.619308,574.096924 
	C215.305557,570.249878 218.356232,566.657288 221.638519,562.986450 
	C221.997513,562.997192 222.015640,563.012512 222.015640,563.012512 
z"/>
<path fill="#ACE2D8" opacity="1.000000" stroke="none" 
	d="
M467.361816,924.540894 
	C468.932373,921.656616 470.184967,918.993042 471.948914,915.242004 
	C473.616913,920.376038 473.385864,924.397400 470.172974,926.962952 
	C467.564972,929.045532 463.859863,930.462708 459.216431,926.847229 
	C462.522888,925.966187 464.783356,925.363831 467.361816,924.540894 
z"/>
<path fill="#ACE2D8" opacity="1.000000" stroke="none" 
	d="
M654.146606,783.590820 
	C657.949036,785.920105 661.417542,788.059692 664.886047,790.199280 
	C664.750183,790.762878 664.614380,791.326477 664.478516,791.890015 
	C662.348877,791.559204 660.112122,791.528198 658.118591,790.816162 
	C655.979126,790.052124 653.966125,788.791016 652.101807,787.461060 
	C651.197754,786.816040 650.759338,785.518433 650.110107,784.516235 
	C651.344299,784.144531 652.578552,783.772766 654.146606,783.590820 
z"/>
<path fill="#ACE2D8" opacity="1.000000" stroke="none" 
	d="
M322.498169,902.282959 
	C323.990540,902.721313 325.315155,902.749207 326.146454,903.403748 
	C326.935791,904.025146 327.724396,905.406555 327.551849,906.259155 
	C327.404205,906.988831 325.920502,907.889832 324.983337,907.943665 
	C320.210571,908.218079 316.830170,905.743774 313.876404,902.608582 
	C314.019806,902.121277 314.163177,901.634033 314.306549,901.146729 
	C316.909332,901.479919 319.512115,901.813049 322.498169,902.282959 
z"/>
<path fill="#41CBBB" opacity="1.000000" stroke="none" 
	d="
M304.762360,496.393372 
	C307.301483,498.928833 309.000061,501.357727 306.871521,505.867279 
	C303.571411,501.701569 300.728607,498.113129 297.890045,494.529999 
	C300.605469,492.231232 300.605469,492.231232 304.762360,496.393372 
z"/>
<path fill="#ACE2D8" opacity="1.000000" stroke="none" 
	d="
M649.984985,793.966431 
	C653.355957,796.531494 658.165894,797.159607 658.440063,802.438660 
	C653.561279,799.865234 648.102295,798.166809 644.741882,793.599609 
	C645.074585,793.050537 645.407227,792.501526 645.739868,791.952454 
	C647.043945,792.570435 648.348022,793.188416 649.984985,793.966431 
z"/>
<path fill="#ACE2D8" opacity="1.000000" stroke="none" 
	d="
M478.371826,916.544250 
	C480.036957,915.389221 481.540710,914.597534 484.264221,913.163696 
	C483.708282,917.819946 483.403931,921.186279 482.817322,924.502747 
	C482.715820,925.076538 481.301270,925.918274 480.704285,925.772339 
	C480.021606,925.605591 479.246063,924.539490 479.087921,923.748718 
	C478.638245,921.499756 478.482117,919.192139 478.371826,916.544250 
z"/>
<path fill="#ACE2D8" opacity="1.000000" stroke="none" 
	d="
M605.848389,860.275696 
	C603.139771,857.367920 600.713806,854.682068 598.041138,851.723083 
	C603.864746,850.978699 608.533813,855.119324 609.743652,861.954773 
	C608.346985,861.391418 607.239014,860.944519 605.848389,860.275696 
z"/>
<path fill="#ACE2D8" opacity="1.000000" stroke="none" 
	d="
M622.014465,826.729736 
	C627.388428,826.732971 632.291504,831.133789 632.648315,837.404114 
	C629.021973,833.928040 625.395691,830.451904 622.014465,826.729736 
z"/>
<path fill="#ACE2D8" opacity="1.000000" stroke="none" 
	d="
M432.007874,918.035217 
	C432.402863,921.003784 432.778137,923.551270 433.153412,926.098755 
	C432.824341,926.230896 432.495270,926.363037 432.166199,926.495117 
	C429.805450,922.498474 427.444702,918.501770 424.899109,914.192139 
	C427.759064,914.232727 431.420105,912.190491 432.007874,918.035217 
z"/>
<path fill="#ACE2D8" opacity="1.000000" stroke="none" 
	d="
M548.734497,884.213623 
	C549.231018,884.100159 549.395508,884.090637 549.559998,884.081177 
	C548.796082,885.451416 548.351929,887.257324 547.201843,888.101379 
	C544.782043,889.877380 541.991943,891.148804 539.353821,892.627319 
	C539.271179,891.534790 538.740967,889.742432 539.178284,889.462708 
	C542.138733,887.569031 545.303711,885.995056 548.734497,884.213623 
z"/>
<path fill="#ACE2D8" opacity="1.000000" stroke="none" 
	d="
M377.276917,913.263733 
	C378.356934,911.508423 379.264221,910.085022 380.171478,908.661682 
	C380.676453,908.953796 381.181427,909.245972 381.686401,909.538086 
	C379.472534,914.710632 377.258636,919.883179 375.044769,925.055725 
	C374.415985,924.817322 373.787170,924.578918 373.158386,924.340576 
	C372.515900,920.197815 375.980103,917.232117 377.276917,913.263733 
z"/>
<path fill="#ACE2D8" opacity="1.000000" stroke="none" 
	d="
M569.416748,882.970947 
	C569.699524,885.332825 569.810364,887.341003 569.921204,889.349121 
	C569.443787,889.452576 568.966370,889.556030 568.488953,889.659424 
	C566.660461,885.373901 564.831970,881.088318 563.003418,876.802734 
	C563.496277,876.495544 563.989075,876.188416 564.481873,875.881226 
	C566.069519,878.126526 567.657227,880.371826 569.416748,882.970947 
z"/>
<path fill="#ACE2D8" opacity="1.000000" stroke="none" 
	d="
M240.899567,840.947327 
	C239.598282,843.004578 238.478546,844.815369 237.097733,846.398376 
	C234.925598,848.888672 233.280212,848.353638 232.125854,844.801758 
	C234.344864,843.131897 236.602936,841.340637 238.991135,839.744141 
	C239.314041,839.528259 240.290329,840.289734 240.899567,840.947327 
z"/>
<path fill="#ACE2D8" opacity="1.000000" stroke="none" 
	d="
M272.887939,877.887207 
	C270.794342,877.065125 269.075439,876.162842 267.356567,875.260559 
	C267.563751,874.723145 267.770966,874.185730 267.978149,873.648315 
	C270.222107,874.098999 272.466034,874.549683 274.709991,875.000366 
	C274.227570,875.935913 273.745117,876.871521 272.887939,877.887207 
z"/>
<path fill="#579491" opacity="1.000000" stroke="none" 
	d="
M223.026016,876.962036 
	C222.674728,876.943054 222.312836,876.941162 221.950958,876.939270 
	C221.979065,876.729675 222.007156,876.520142 222.035248,876.310547 
	C222.289413,876.392578 222.543594,876.474670 222.895325,876.783447 
	C222.992889,877.010132 223.015427,876.979065 223.026016,876.962036 
z"/>
<path fill="#579491" opacity="1.000000" stroke="none" 
	d="
M369.983276,867.015137 
	C370.411194,867.237610 370.859161,867.439697 371.307098,867.641785 
	C370.878357,867.604736 370.449615,867.567749 370.031494,867.241699 
	C370.042114,866.952698 370.003296,866.994751 369.983276,867.015137 
z"/>
<path fill="#ACE2D8" opacity="1.000000" stroke="none" 
	d="
M221.989258,562.987488 
	C222.094086,562.947571 222.207184,562.917358 222.167969,562.949829 
	C222.015640,563.012512 221.997513,562.997192 221.989258,562.987488 
z"/>
<path fill="#F9FCFD" opacity="1.000000" stroke="none" 
	d="
M1123.603027,612.187134 
	C1154.247681,623.673096 1167.842896,655.631348 1156.061646,687.704834 
	C1146.081543,714.874756 1114.079712,729.556519 1085.493042,718.797363 
	C1054.556519,707.153503 1043.617798,677.910400 1053.044434,646.042908 
	C1062.249390,614.924805 1095.618774,603.109131 1123.603027,612.187134 
z"/>
<path fill="#F9FCFD" opacity="1.000000" stroke="none" 
	d="
M1504.655151,603.054443 
	C1526.087891,609.327881 1530.365601,625.793518 1530.600464,641.337341 
	C1530.845337,657.536865 1519.155518,671.110107 1502.566406,674.980774 
	C1495.518188,676.625244 1488.173096,677.401855 1480.926880,677.700684 
	C1469.296753,678.180176 1457.636841,677.967834 1445.989502,677.980530 
	C1440.906128,677.986084 1438.975098,676.164795 1439.026489,671.180298 
	C1439.249756,649.562500 1439.592163,627.945984 1439.818115,606.328247 
	C1439.859497,602.367737 1441.968872,600.154602 1445.573608,600.293945 
	C1465.136841,601.050171 1484.690186,602.067505 1504.655151,603.054443 
z"/>
<path fill="#F9FCFD" opacity="1.000000" stroke="none" 
	d="
M1261.683350,644.986084 
	C1261.724731,632.178101 1261.680542,619.866516 1261.845825,607.557739 
	C1261.923340,601.776184 1263.691040,600.063660 1269.448608,600.231995 
	C1285.577637,600.703430 1301.721313,601.022583 1317.822388,602.005615 
	C1340.709595,603.402832 1354.499390,621.552429 1351.410400,644.153687 
	C1348.658813,664.286316 1336.818237,672.863159 1320.232544,674.808716 
	C1305.770142,676.505066 1291.117554,676.597107 1276.546021,677.335754 
	C1273.242920,677.503235 1269.925415,677.487061 1266.617188,677.420959 
	C1263.425415,677.357117 1261.687256,675.624939 1261.673706,672.412048 
	C1261.640747,664.602661 1261.675903,656.792969 1261.683350,648.983398 
	C1261.684570,647.816772 1261.683594,646.650208 1261.683350,644.986084 
z"/>
<path fill="#0E7170" opacity="1.000000" stroke="none" 
	d="
M326.628204,993.162720 
	C329.645203,995.756042 331.400360,998.545410 329.255768,1002.014587 
	C327.670044,1004.579529 325.423431,1007.130554 322.097595,1004.415405 
	C319.659058,1002.424622 314.447327,1002.096008 316.811157,996.687561 
	C318.764038,992.219482 321.078796,991.262451 326.628204,993.162720 
z"/>
<path fill="#0E7170" opacity="1.000000" stroke="none" 
	d="
M343.490295,992.319824 
	C348.791199,995.476685 349.758026,998.181396 347.274567,1002.026184 
	C344.967285,1005.598206 341.542542,1005.978699 337.375397,1003.125793 
	C334.003937,1000.817688 333.821625,997.259338 337.338379,994.499634 
	C338.906158,993.269470 341.179443,992.938354 343.490295,992.319824 
z"/>
<path fill="#0E7170" opacity="1.000000" stroke="none" 
	d="
M365.958527,999.787720 
	C363.433929,1004.810791 357.858459,1006.662292 355.260712,1003.418152 
	C354.020630,1001.869629 352.881470,998.435059 353.680450,997.426880 
	C355.456024,995.186218 358.568848,992.575989 360.970276,992.728821 
	C362.776825,992.843872 364.324768,997.022156 365.958527,999.787720 
z"/>
<path fill="#0E7170" opacity="1.000000" stroke="none" 
	d="
M401.239929,1003.432129 
	C398.556885,1002.589600 396.161835,1001.598083 397.178925,998.625793 
	C397.665833,997.202942 399.728119,995.093811 400.624390,995.296570 
	C402.381348,995.693909 404.542786,997.180237 405.236298,998.779724 
	C406.518982,1001.738037 404.520721,1003.262878 401.239929,1003.432129 
z"/>
<path fill="#F2FAFA" opacity="1.000000" stroke="none" 
	d="
M997.376953,863.371399 
	C1000.847717,855.347229 1004.131592,847.658508 1007.893494,838.850403 
	C1017.116211,860.785339 1025.880127,881.628845 1034.810547,902.868774 
	C1016.597778,902.868774 999.013611,902.868774 980.774658,902.868774 
	C986.345459,889.578491 991.767700,876.642639 997.376953,863.371399 
z"/>
<path fill="#52918D" opacity="1.000000" stroke="none" 
	d="
M131.895844,664.540283 
	C132.358337,664.298035 132.847565,664.518311 133.590042,664.833984 
	C135.068054,682.709351 137.171524,700.457520 136.058533,718.336182 
	C131.421432,700.777039 132.015686,682.865051 131.895844,664.540283 
z"/>
</svg>